<svg width="450" height="53" viewBox="0 0 450 53" fill="none" xmlns="http://www.w3.org/2000/svg">
<rect x="1.45833" y="9.7596" width="32.0833" height="32.0833" rx="12.3958" fill="#F03E3D"/>
<rect x="1.45833" y="9.7596" width="32.0833" height="32.0833" rx="12.3958" stroke="white" stroke-width="2.91667"/>
<rect x="1.45833" y="9.7596" width="32.0833" height="32.0833" rx="12.3958" stroke="#F03E3D" stroke-width="2.91667"/>
<path d="M25.7657 20.5406C25.4533 20.2215 24.9468 20.2215 24.6343 20.5406L15.0498 30.329L11.3657 26.5665C11.0533 26.2475 10.5468 26.2475 10.2343 26.5665C9.92189 26.8856 9.92189 27.4029 10.2343 27.7219L14.4841 32.0621C14.7964 32.3811 15.3033 32.3809 15.6155 32.0621L25.7657 21.696C26.0781 21.377 26.0781 20.8597 25.7657 20.5406Z" fill="white"/>
<path d="M80.248 8.14927L77.016 19.3013H75.384L72.792 10.3253L70.104 19.3013L68.488 19.3173L65.368 8.14927H66.92L69.352 17.6053L72.04 8.14927H73.672L76.232 17.5733L78.68 8.14927H80.248ZM89.8414 14.5813C89.8414 14.8586 89.8254 15.1519 89.7934 15.4613H82.7854C82.8387 16.3253 83.132 17.0026 83.6654 17.4933C84.2094 17.9733 84.8654 18.2133 85.6334 18.2133C86.2627 18.2133 86.7854 18.0693 87.2014 17.7813C87.628 17.4826 87.9267 17.0879 88.0974 16.5973H89.6654C89.4307 17.4399 88.9614 18.1279 88.2574 18.6613C87.5534 19.1839 86.6787 19.4453 85.6334 19.4453C84.8014 19.4453 84.0547 19.2586 83.3934 18.8853C82.7427 18.5119 82.2307 17.9839 81.8574 17.3013C81.484 16.6079 81.2974 15.8079 81.2974 14.9013C81.2974 13.9946 81.4787 13.1999 81.8414 12.5173C82.204 11.8346 82.7107 11.3119 83.3614 10.9493C84.0227 10.5759 84.78 10.3893 85.6334 10.3893C86.4654 10.3893 87.2014 10.5706 87.8414 10.9333C88.4814 11.2959 88.972 11.7973 89.3134 12.4373C89.6654 13.0666 89.8414 13.7813 89.8414 14.5813ZM88.3374 14.2773C88.3374 13.7226 88.2147 13.2479 87.9694 12.8533C87.724 12.4479 87.388 12.1439 86.9614 11.9413C86.5454 11.7279 86.0814 11.6213 85.5694 11.6213C84.8334 11.6213 84.204 11.8559 83.6814 12.3253C83.1694 12.7946 82.876 13.4453 82.8014 14.2773H88.3374ZM107.709 10.5333L104.973 19.3013H103.469L101.357 12.3413L99.2449 19.3013H97.7409L94.9889 10.5333H96.4769L98.4929 17.8933L100.669 10.5333H102.157L104.285 17.9093L106.269 10.5333H107.709ZM109.906 9.10927C109.629 9.10927 109.394 9.01327 109.202 8.82127C109.01 8.62927 108.914 8.3946 108.914 8.11727C108.914 7.83994 109.01 7.60527 109.202 7.41327C109.394 7.22127 109.629 7.12527 109.906 7.12527C110.173 7.12527 110.397 7.22127 110.578 7.41327C110.77 7.60527 110.866 7.83994 110.866 8.11727C110.866 8.3946 110.77 8.62927 110.578 8.82127C110.397 9.01327 110.173 9.10927 109.906 9.10927ZM110.61 10.5333V19.3013H109.154V10.5333H110.61ZM114.547 7.46127V19.3013H113.091V7.46127H114.547ZM118.485 7.46127V19.3013H117.029V7.46127H118.485ZM129.056 19.4453C128.235 19.4453 127.488 19.2586 126.816 18.8853C126.155 18.5119 125.632 17.9839 125.248 17.3013C124.875 16.6079 124.688 15.8079 124.688 14.9013C124.688 14.0053 124.88 13.2159 125.264 12.5333C125.659 11.8399 126.192 11.3119 126.864 10.9493C127.536 10.5759 128.288 10.3893 129.12 10.3893C129.952 10.3893 130.704 10.5759 131.376 10.9493C132.048 11.3119 132.576 11.8346 132.96 12.5173C133.355 13.1999 133.552 13.9946 133.552 14.9013C133.552 15.8079 133.349 16.6079 132.944 17.3013C132.549 17.9839 132.011 18.5119 131.328 18.8853C130.645 19.2586 129.888 19.4453 129.056 19.4453ZM129.056 18.1653C129.579 18.1653 130.069 18.0426 130.528 17.7973C130.987 17.5519 131.355 17.1839 131.632 16.6933C131.92 16.2026 132.064 15.6053 132.064 14.9013C132.064 14.1973 131.925 13.5999 131.648 13.1093C131.371 12.6186 131.008 12.2559 130.56 12.0213C130.112 11.7759 129.627 11.6533 129.104 11.6533C128.571 11.6533 128.08 11.7759 127.632 12.0213C127.195 12.2559 126.843 12.6186 126.576 13.1093C126.309 13.5999 126.176 14.1973 126.176 14.9013C126.176 15.6159 126.304 16.2186 126.56 16.7093C126.827 17.1999 127.179 17.5679 127.616 17.8133C128.053 18.0479 128.533 18.1653 129.056 18.1653ZM139.738 10.3733C140.805 10.3733 141.669 10.6986 142.33 11.3493C142.992 11.9893 143.322 12.9173 143.322 14.1333V19.3013H141.882V14.3413C141.882 13.4666 141.664 12.7999 141.226 12.3413C140.789 11.8719 140.192 11.6373 139.434 11.6373C138.666 11.6373 138.053 11.8773 137.594 12.3573C137.146 12.8373 136.922 13.5359 136.922 14.4533V19.3013H135.466V10.5333H136.922V11.7813C137.21 11.3333 137.6 10.9866 138.09 10.7413C138.592 10.4959 139.141 10.3733 139.738 10.3733ZM147.157 7.46127V19.3013H145.701V7.46127H147.157ZM157.19 10.5333L151.91 23.4293H150.406L152.134 19.2053L148.598 10.5333H150.214L152.966 17.6373L155.686 10.5333H157.19ZM166.024 19.4453C165.352 19.4453 164.749 19.3333 164.216 19.1093C163.682 18.8746 163.261 18.5546 162.952 18.1493C162.642 17.7333 162.472 17.2586 162.44 16.7253H163.944C163.986 17.1626 164.189 17.5199 164.552 17.7973C164.925 18.0746 165.41 18.2133 166.008 18.2133C166.562 18.2133 167 18.0906 167.32 17.8453C167.64 17.5999 167.8 17.2906 167.8 16.9173C167.8 16.5333 167.629 16.2506 167.288 16.0693C166.946 15.8773 166.418 15.6906 165.704 15.5093C165.053 15.3386 164.52 15.1679 164.104 14.9973C163.698 14.8159 163.346 14.5546 163.048 14.2133C162.76 13.8613 162.616 13.4026 162.616 12.8373C162.616 12.3893 162.749 11.9786 163.016 11.6053C163.282 11.2319 163.661 10.9386 164.152 10.7253C164.642 10.5013 165.202 10.3893 165.832 10.3893C166.802 10.3893 167.586 10.6346 168.184 11.1253C168.781 11.6159 169.101 12.2879 169.144 13.1413H167.688C167.656 12.6826 167.469 12.3146 167.128 12.0373C166.797 11.7599 166.349 11.6213 165.784 11.6213C165.261 11.6213 164.845 11.7333 164.536 11.9573C164.226 12.1813 164.072 12.4746 164.072 12.8373C164.072 13.1253 164.162 13.3653 164.344 13.5573C164.536 13.7386 164.77 13.8879 165.048 14.0053C165.336 14.1119 165.73 14.2346 166.232 14.3733C166.861 14.5439 167.373 14.7146 167.768 14.8853C168.162 15.0453 168.498 15.2906 168.776 15.6213C169.064 15.9519 169.213 16.3839 169.224 16.9173C169.224 17.3973 169.09 17.8293 168.824 18.2133C168.557 18.5973 168.178 18.9013 167.688 19.1253C167.208 19.3386 166.653 19.4453 166.024 19.4453ZM182.959 10.5333L180.223 19.3013H178.719L176.607 12.3413L174.495 19.3013H172.991L170.239 10.5333H171.727L173.743 17.8933L175.919 10.5333H177.407L179.535 17.9093L181.519 10.5333H182.959ZM185.156 9.10927C184.879 9.10927 184.644 9.01327 184.452 8.82127C184.26 8.62927 184.164 8.3946 184.164 8.11727C184.164 7.83994 184.26 7.60527 184.452 7.41327C184.644 7.22127 184.879 7.12527 185.156 7.12527C185.423 7.12527 185.647 7.22127 185.828 7.41327C186.02 7.60527 186.116 7.83994 186.116 8.11727C186.116 8.3946 186.02 8.62927 185.828 8.82127C185.647 9.01327 185.423 9.10927 185.156 9.10927ZM185.86 10.5333V19.3013H184.404V10.5333H185.86ZM190.117 11.7333V16.9013C190.117 17.3279 190.208 17.6319 190.389 17.8133C190.571 17.9839 190.885 18.0693 191.333 18.0693H192.405V19.3013H191.093C190.283 19.3013 189.675 19.1146 189.269 18.7413C188.864 18.3679 188.661 17.7546 188.661 16.9013V11.7333H187.525V10.5333H188.661V8.32527H190.117V10.5333H192.405V11.7333H190.117ZM193.626 14.9013C193.626 13.9946 193.807 13.2053 194.17 12.5333C194.532 11.8506 195.034 11.3226 195.674 10.9493C196.324 10.5759 197.066 10.3893 197.898 10.3893C198.975 10.3893 199.86 10.6506 200.554 11.1733C201.258 11.6959 201.722 12.4213 201.946 13.3493H200.378C200.228 12.8159 199.935 12.3946 199.498 12.0853C199.071 11.7759 198.538 11.6213 197.898 11.6213C197.066 11.6213 196.394 11.9093 195.882 12.4853C195.37 13.0506 195.114 13.8559 195.114 14.9013C195.114 15.9573 195.37 16.7733 195.882 17.3493C196.394 17.9253 197.066 18.2133 197.898 18.2133C198.538 18.2133 199.071 18.0639 199.498 17.7653C199.924 17.4666 200.218 17.0399 200.378 16.4853H201.946C201.711 17.3813 201.242 18.1013 200.538 18.6453C199.834 19.1786 198.954 19.4453 197.898 19.4453C197.066 19.4453 196.324 19.2586 195.674 18.8853C195.034 18.5119 194.532 17.9839 194.17 17.3013C193.807 16.6186 193.626 15.8186 193.626 14.9013ZM208.24 10.3733C208.902 10.3733 209.499 10.5173 210.032 10.8053C210.566 11.0826 210.982 11.5039 211.28 12.0693C211.59 12.6346 211.744 13.3226 211.744 14.1333V19.3013H210.304V14.3413C210.304 13.4666 210.086 12.7999 209.648 12.3413C209.211 11.8719 208.614 11.6373 207.856 11.6373C207.088 11.6373 206.475 11.8773 206.016 12.3573C205.568 12.8373 205.344 13.5359 205.344 14.4533V19.3013H203.888V7.46127H205.344V11.7813C205.632 11.3333 206.027 10.9866 206.528 10.7413C207.04 10.4959 207.611 10.3733 208.24 10.3733ZM225.94 10.5333L220.66 23.4293H219.156L220.884 19.2053L217.348 10.5333H218.964L221.716 17.6373L224.436 10.5333H225.94ZM231.228 19.4453C230.407 19.4453 229.66 19.2586 228.988 18.8853C228.327 18.5119 227.804 17.9839 227.42 17.3013C227.047 16.6079 226.86 15.8079 226.86 14.9013C226.86 14.0053 227.052 13.2159 227.436 12.5333C227.831 11.8399 228.364 11.3119 229.036 10.9493C229.708 10.5759 230.46 10.3893 231.292 10.3893C232.124 10.3893 232.876 10.5759 233.548 10.9493C234.22 11.3119 234.748 11.8346 235.132 12.5173C235.527 13.1999 235.724 13.9946 235.724 14.9013C235.724 15.8079 235.521 16.6079 235.116 17.3013C234.721 17.9839 234.183 18.5119 233.5 18.8853C232.817 19.2586 232.06 19.4453 231.228 19.4453ZM231.228 18.1653C231.751 18.1653 232.241 18.0426 232.7 17.7973C233.159 17.5519 233.527 17.1839 233.804 16.6933C234.092 16.2026 234.236 15.6053 234.236 14.9013C234.236 14.1973 234.097 13.5999 233.82 13.1093C233.543 12.6186 233.18 12.2559 232.732 12.0213C232.284 11.7759 231.799 11.6533 231.276 11.6533C230.743 11.6533 230.252 11.7759 229.804 12.0213C229.367 12.2559 229.015 12.6186 228.748 13.1093C228.481 13.5999 228.348 14.1973 228.348 14.9013C228.348 15.6159 228.476 16.2186 228.732 16.7093C228.999 17.1999 229.351 17.5679 229.788 17.8133C230.225 18.0479 230.705 18.1653 231.228 18.1653ZM245.414 10.5333V19.3013H243.958V18.0053C243.681 18.4533 243.292 18.8053 242.79 19.0613C242.3 19.3066 241.756 19.4293 241.158 19.4293C240.476 19.4293 239.862 19.2906 239.318 19.0133C238.774 18.7253 238.342 18.2986 238.022 17.7333C237.713 17.1679 237.558 16.4799 237.558 15.6693V10.5333H238.998V15.4773C238.998 16.3413 239.217 17.0079 239.654 17.4773C240.092 17.9359 240.689 18.1653 241.446 18.1653C242.225 18.1653 242.838 17.9253 243.286 17.4453C243.734 16.9653 243.958 16.2666 243.958 15.3493V10.5333H245.414ZM253.914 11.7333V16.9013C253.914 17.3279 254.005 17.6319 254.186 17.8133C254.368 17.9839 254.682 18.0693 255.13 18.0693H256.202V19.3013H254.89C254.08 19.3013 253.472 19.1146 253.066 18.7413C252.661 18.3679 252.458 17.7546 252.458 16.9013V11.7333H251.322V10.5333H252.458V8.32527H253.914V10.5333H256.202V11.7333H253.914ZM261.79 19.4453C260.969 19.4453 260.222 19.2586 259.55 18.8853C258.889 18.5119 258.366 17.9839 257.982 17.3013C257.609 16.6079 257.422 15.8079 257.422 14.9013C257.422 14.0053 257.614 13.2159 257.998 12.5333C258.393 11.8399 258.926 11.3119 259.598 10.9493C260.27 10.5759 261.022 10.3893 261.854 10.3893C262.686 10.3893 263.438 10.5759 264.11 10.9493C264.782 11.3119 265.31 11.8346 265.694 12.5173C266.089 13.1999 266.286 13.9946 266.286 14.9013C266.286 15.8079 266.084 16.6079 265.678 17.3013C265.284 17.9839 264.745 18.5119 264.062 18.8853C263.38 19.2586 262.622 19.4453 261.79 19.4453ZM261.79 18.1653C262.313 18.1653 262.804 18.0426 263.262 17.7973C263.721 17.5519 264.089 17.1839 264.366 16.6933C264.654 16.2026 264.798 15.6053 264.798 14.9013C264.798 14.1973 264.66 13.5999 264.382 13.1093C264.105 12.6186 263.742 12.2559 263.294 12.0213C262.846 11.7759 262.361 11.6533 261.838 11.6533C261.305 11.6533 260.814 11.7759 260.366 12.0213C259.929 12.2559 259.577 12.6186 259.31 13.1093C259.044 13.5999 258.91 14.1973 258.91 14.9013C258.91 15.6159 259.038 16.2186 259.294 16.7093C259.561 17.1999 259.913 17.5679 260.35 17.8133C260.788 18.0479 261.268 18.1653 261.79 18.1653ZM280.466 14.5813C280.466 14.8586 280.45 15.1519 280.418 15.4613H273.41C273.464 16.3253 273.757 17.0026 274.29 17.4933C274.834 17.9733 275.49 18.2133 276.258 18.2133C276.888 18.2133 277.41 18.0693 277.826 17.7813C278.253 17.4826 278.552 17.0879 278.722 16.5973H280.29C280.056 17.4399 279.586 18.1279 278.882 18.6613C278.178 19.1839 277.304 19.4453 276.258 19.4453C275.426 19.4453 274.68 19.2586 274.018 18.8853C273.368 18.5119 272.856 17.9839 272.482 17.3013C272.109 16.6079 271.922 15.8079 271.922 14.9013C271.922 13.9946 272.104 13.1999 272.466 12.5173C272.829 11.8346 273.336 11.3119 273.986 10.9493C274.648 10.5759 275.405 10.3893 276.258 10.3893C277.09 10.3893 277.826 10.5706 278.466 10.9333C279.106 11.2959 279.597 11.7973 279.938 12.4373C280.29 13.0666 280.466 13.7813 280.466 14.5813ZM278.962 14.2773C278.962 13.7226 278.84 13.2479 278.594 12.8533C278.349 12.4479 278.013 12.1439 277.586 11.9413C277.17 11.7279 276.706 11.6213 276.194 11.6213C275.458 11.6213 274.829 11.8559 274.306 12.3253C273.794 12.7946 273.501 13.4453 273.426 14.2773H278.962ZM286.66 10.3733C287.727 10.3733 288.591 10.6986 289.252 11.3493C289.914 11.9893 290.244 12.9173 290.244 14.1333V19.3013H288.804V14.3413C288.804 13.4666 288.586 12.7999 288.148 12.3413C287.711 11.8719 287.114 11.6373 286.356 11.6373C285.588 11.6373 284.975 11.8773 284.516 12.3573C284.068 12.8373 283.844 13.5359 283.844 14.4533V19.3013H282.388V10.5333H283.844V11.7813C284.132 11.3333 284.522 10.9866 285.012 10.7413C285.514 10.4959 286.063 10.3733 286.66 10.3733ZM300.623 14.5813C300.623 14.8586 300.607 15.1519 300.575 15.4613H293.567C293.62 16.3253 293.913 17.0026 294.447 17.4933C294.991 17.9733 295.647 18.2133 296.415 18.2133C297.044 18.2133 297.567 18.0693 297.983 17.7813C298.409 17.4826 298.708 17.0879 298.879 16.5973H300.447C300.212 17.4399 299.743 18.1279 299.039 18.6613C298.335 19.1839 297.46 19.4453 296.415 19.4453C295.583 19.4453 294.836 19.2586 294.175 18.8853C293.524 18.5119 293.012 17.9839 292.639 17.3013C292.265 16.6079 292.079 15.8079 292.079 14.9013C292.079 13.9946 292.26 13.1999 292.623 12.5173C292.985 11.8346 293.492 11.3119 294.143 10.9493C294.804 10.5759 295.561 10.3893 296.415 10.3893C297.247 10.3893 297.983 10.5706 298.623 10.9333C299.263 11.2959 299.753 11.7973 300.095 12.4373C300.447 13.0666 300.623 13.7813 300.623 14.5813ZM299.119 14.2773C299.119 13.7226 298.996 13.2479 298.751 12.8533C298.505 12.4479 298.169 12.1439 297.743 11.9413C297.327 11.7279 296.863 11.6213 296.351 11.6213C295.615 11.6213 294.985 11.8559 294.463 12.3253C293.951 12.7946 293.657 13.4453 293.583 14.2773H299.119ZM304.001 11.9573C304.257 11.4559 304.619 11.0666 305.089 10.7893C305.569 10.5119 306.15 10.3733 306.833 10.3733V11.8773H306.449C304.817 11.8773 304.001 12.7626 304.001 14.5333V19.3013H302.545V10.5333H304.001V11.9573ZM312.129 10.3893C312.887 10.3893 313.548 10.5546 314.113 10.8853C314.689 11.2159 315.116 11.6319 315.393 12.1333V10.5333H316.865V19.4933C316.865 20.2933 316.695 21.0026 316.353 21.6213C316.012 22.2506 315.521 22.7413 314.881 23.0933C314.252 23.4453 313.516 23.6213 312.673 23.6213C311.521 23.6213 310.561 23.3493 309.793 22.8053C309.025 22.2613 308.572 21.5199 308.433 20.5813H309.873C310.033 21.1146 310.364 21.5413 310.865 21.8613C311.367 22.1919 311.969 22.3573 312.673 22.3573C313.473 22.3573 314.124 22.1066 314.625 21.6053C315.137 21.1039 315.393 20.3999 315.393 19.4933V17.6533C315.105 18.1653 314.679 18.5919 314.113 18.9333C313.548 19.2746 312.887 19.4453 312.129 19.4453C311.351 19.4453 310.641 19.2533 310.001 18.8693C309.372 18.4853 308.876 17.9466 308.513 17.2533C308.151 16.5599 307.969 15.7706 307.969 14.8853C307.969 13.9893 308.151 13.2053 308.513 12.5333C308.876 11.8506 309.372 11.3226 310.001 10.9493C310.641 10.5759 311.351 10.3893 312.129 10.3893ZM315.393 14.9013C315.393 14.2399 315.26 13.6639 314.993 13.1733C314.727 12.6826 314.364 12.3093 313.905 12.0533C313.457 11.7866 312.961 11.6533 312.417 11.6533C311.873 11.6533 311.377 11.7813 310.929 12.0373C310.481 12.2933 310.124 12.6666 309.857 13.1573C309.591 13.6479 309.457 14.2239 309.457 14.8853C309.457 15.5573 309.591 16.1439 309.857 16.6453C310.124 17.1359 310.481 17.5146 310.929 17.7813C311.377 18.0373 311.873 18.1653 312.417 18.1653C312.961 18.1653 313.457 18.0373 313.905 17.7813C314.364 17.5146 314.727 17.1359 314.993 16.6453C315.26 16.1439 315.393 15.5626 315.393 14.9013ZM326.878 10.5333L321.598 23.4293H320.094L321.822 19.2053L318.286 10.5333H319.902L322.654 17.6373L325.374 10.5333H326.878ZM332.063 14.9013C332.063 13.9946 332.244 13.2053 332.607 12.5333C332.97 11.8506 333.471 11.3226 334.111 10.9493C334.762 10.5759 335.503 10.3893 336.335 10.3893C337.412 10.3893 338.298 10.6506 338.991 11.1733C339.695 11.6959 340.159 12.4213 340.383 13.3493H338.815C338.666 12.8159 338.372 12.3946 337.935 12.0853C337.508 11.7759 336.975 11.6213 336.335 11.6213C335.503 11.6213 334.831 11.9093 334.319 12.4853C333.807 13.0506 333.551 13.8559 333.551 14.9013C333.551 15.9573 333.807 16.7733 334.319 17.3493C334.831 17.9253 335.503 18.2133 336.335 18.2133C336.975 18.2133 337.508 18.0639 337.935 17.7653C338.362 17.4666 338.655 17.0399 338.815 16.4853H340.383C340.148 17.3813 339.679 18.1013 338.975 18.6453C338.271 19.1786 337.391 19.4453 336.335 19.4453C335.503 19.4453 334.762 19.2586 334.111 18.8853C333.471 18.5119 332.97 17.9839 332.607 17.3013C332.244 16.6186 332.063 15.8186 332.063 14.9013ZM346.15 19.4453C345.328 19.4453 344.582 19.2586 343.91 18.8853C343.248 18.5119 342.726 17.9839 342.342 17.3013C341.968 16.6079 341.782 15.8079 341.782 14.9013C341.782 14.0053 341.974 13.2159 342.358 12.5333C342.752 11.8399 343.286 11.3119 343.958 10.9493C344.63 10.5759 345.382 10.3893 346.214 10.3893C347.046 10.3893 347.798 10.5759 348.47 10.9493C349.142 11.3119 349.67 11.8346 350.054 12.5173C350.448 13.1999 350.646 13.9946 350.646 14.9013C350.646 15.8079 350.443 16.6079 350.038 17.3013C349.643 17.9839 349.104 18.5119 348.422 18.8853C347.739 19.2586 346.982 19.4453 346.15 19.4453ZM346.15 18.1653C346.672 18.1653 347.163 18.0426 347.622 17.7973C348.08 17.5519 348.448 17.1839 348.726 16.6933C349.014 16.2026 349.158 15.6053 349.158 14.9013C349.158 14.1973 349.019 13.5999 348.742 13.1093C348.464 12.6186 348.102 12.2559 347.654 12.0213C347.206 11.7759 346.72 11.6533 346.198 11.6533C345.664 11.6533 345.174 11.7759 344.726 12.0213C344.288 12.2559 343.936 12.6186 343.67 13.1093C343.403 13.5999 343.27 14.1973 343.27 14.9013C343.27 15.6159 343.398 16.2186 343.654 16.7093C343.92 17.1999 344.272 17.5679 344.71 17.8133C345.147 18.0479 345.627 18.1653 346.15 18.1653ZM363.104 10.3733C363.787 10.3733 364.395 10.5173 364.928 10.8053C365.461 11.0826 365.883 11.5039 366.192 12.0693C366.501 12.6346 366.656 13.3226 366.656 14.1333V19.3013H365.216V14.3413C365.216 13.4666 364.997 12.7999 364.56 12.3413C364.133 11.8719 363.552 11.6373 362.816 11.6373C362.059 11.6373 361.456 11.8826 361.008 12.3733C360.56 12.8533 360.336 13.5519 360.336 14.4693V19.3013H358.896V14.3413C358.896 13.4666 358.677 12.7999 358.24 12.3413C357.813 11.8719 357.232 11.6373 356.496 11.6373C355.739 11.6373 355.136 11.8826 354.688 12.3733C354.24 12.8533 354.016 13.5519 354.016 14.4693V19.3013H352.56V10.5333H354.016V11.7973C354.304 11.3386 354.688 10.9866 355.168 10.7413C355.659 10.4959 356.197 10.3733 356.784 10.3733C357.52 10.3733 358.171 10.5386 358.736 10.8693C359.301 11.1999 359.723 11.6853 360 12.3253C360.245 11.7066 360.651 11.2266 361.216 10.8853C361.781 10.5439 362.411 10.3733 363.104 10.3733ZM370.501 12.1493C370.789 11.6479 371.215 11.2319 371.781 10.9013C372.357 10.5599 373.023 10.3893 373.781 10.3893C374.559 10.3893 375.263 10.5759 375.892 10.9493C376.532 11.3226 377.034 11.8506 377.397 12.5333C377.759 13.2053 377.941 13.9893 377.941 14.8853C377.941 15.7706 377.759 16.5599 377.397 17.2533C377.034 17.9466 376.532 18.4853 375.892 18.8693C375.263 19.2533 374.559 19.4453 373.781 19.4453C373.034 19.4453 372.373 19.2799 371.797 18.9493C371.231 18.6079 370.799 18.1866 370.501 17.6853V23.4613H369.045V10.5333H370.501V12.1493ZM376.453 14.8853C376.453 14.2239 376.319 13.6479 376.053 13.1573C375.786 12.6666 375.423 12.2933 374.965 12.0373C374.517 11.7813 374.021 11.6533 373.477 11.6533C372.943 11.6533 372.447 11.7866 371.989 12.0533C371.541 12.3093 371.178 12.6879 370.901 13.1893C370.634 13.6799 370.501 14.2506 370.501 14.9013C370.501 15.5626 370.634 16.1439 370.901 16.6453C371.178 17.1359 371.541 17.5146 371.989 17.7813C372.447 18.0373 372.943 18.1653 373.477 18.1653C374.021 18.1653 374.517 18.0373 374.965 17.7813C375.423 17.5146 375.786 17.1359 376.053 16.6453C376.319 16.1439 376.453 15.5573 376.453 14.8853ZM379.313 14.8853C379.313 13.9893 379.494 13.2053 379.857 12.5333C380.22 11.8506 380.716 11.3226 381.345 10.9493C381.985 10.5759 382.694 10.3893 383.473 10.3893C384.241 10.3893 384.908 10.5546 385.473 10.8853C386.038 11.2159 386.46 11.6319 386.737 12.1333V10.5333H388.209V19.3013H386.737V17.6693C386.449 18.1813 386.017 18.6079 385.441 18.9493C384.876 19.2799 384.214 19.4453 383.457 19.4453C382.678 19.4453 381.974 19.2533 381.345 18.8693C380.716 18.4853 380.22 17.9466 379.857 17.2533C379.494 16.5599 379.313 15.7706 379.313 14.8853ZM386.737 14.9013C386.737 14.2399 386.604 13.6639 386.337 13.1733C386.07 12.6826 385.708 12.3093 385.249 12.0533C384.801 11.7866 384.305 11.6533 383.761 11.6533C383.217 11.6533 382.721 11.7813 382.273 12.0373C381.825 12.2933 381.468 12.6666 381.201 13.1573C380.934 13.6479 380.801 14.2239 380.801 14.8853C380.801 15.5573 380.934 16.1439 381.201 16.6453C381.468 17.1359 381.825 17.5146 382.273 17.7813C382.721 18.0373 383.217 18.1653 383.761 18.1653C384.305 18.1653 384.801 18.0373 385.249 17.7813C385.708 17.5146 386.07 17.1359 386.337 16.6453C386.604 16.1439 386.737 15.5626 386.737 14.9013ZM394.942 10.3733C396.008 10.3733 396.872 10.6986 397.534 11.3493C398.195 11.9893 398.526 12.9173 398.526 14.1333V19.3013H397.086V14.3413C397.086 13.4666 396.867 12.7999 396.43 12.3413C395.992 11.8719 395.395 11.6373 394.638 11.6373C393.87 11.6373 393.256 11.8773 392.798 12.3573C392.35 12.8373 392.126 13.5359 392.126 14.4533V19.3013H390.67V10.5333H392.126V11.7813C392.414 11.3333 392.803 10.9866 393.294 10.7413C393.795 10.4959 394.344 10.3733 394.942 10.3733ZM401.656 9.10927C401.379 9.10927 401.144 9.01327 400.952 8.82127C400.76 8.62927 400.664 8.3946 400.664 8.11727C400.664 7.83994 400.76 7.60527 400.952 7.41327C401.144 7.22127 401.379 7.12527 401.656 7.12527C401.923 7.12527 402.147 7.22127 402.328 7.41327C402.52 7.60527 402.616 7.83994 402.616 8.11727C402.616 8.3946 402.52 8.62927 402.328 8.82127C402.147 9.01327 401.923 9.10927 401.656 9.10927ZM402.36 10.5333V19.3013H400.904V10.5333H402.36ZM412.841 14.5813C412.841 14.8586 412.825 15.1519 412.793 15.4613H405.785C405.839 16.3253 406.132 17.0026 406.665 17.4933C407.209 17.9733 407.865 18.2133 408.633 18.2133C409.263 18.2133 409.785 18.0693 410.201 17.7813C410.628 17.4826 410.927 17.0879 411.097 16.5973H412.665C412.431 17.4399 411.961 18.1279 411.257 18.6613C410.553 19.1839 409.679 19.4453 408.633 19.4453C407.801 19.4453 407.055 19.2586 406.393 18.8853C405.743 18.5119 405.231 17.9839 404.857 17.3013C404.484 16.6079 404.297 15.8079 404.297 14.9013C404.297 13.9946 404.479 13.1999 404.841 12.5173C405.204 11.8346 405.711 11.3119 406.361 10.9493C407.023 10.5759 407.78 10.3893 408.633 10.3893C409.465 10.3893 410.201 10.5706 410.841 10.9333C411.481 11.2959 411.972 11.7973 412.313 12.4373C412.665 13.0666 412.841 13.7813 412.841 14.5813ZM411.337 14.2773C411.337 13.7226 411.215 13.2479 410.969 12.8533C410.724 12.4479 410.388 12.1439 409.961 11.9413C409.545 11.7279 409.081 11.6213 408.569 11.6213C407.833 11.6213 407.204 11.8559 406.681 12.3253C406.169 12.7946 405.876 13.4453 405.801 14.2773H411.337ZM417.867 19.4453C417.195 19.4453 416.593 19.3333 416.059 19.1093C415.526 18.8746 415.105 18.5546 414.795 18.1493C414.486 17.7333 414.315 17.2586 414.283 16.7253H415.787C415.83 17.1626 416.033 17.5199 416.395 17.7973C416.769 18.0746 417.254 18.2133 417.851 18.2133C418.406 18.2133 418.843 18.0906 419.163 17.8453C419.483 17.5999 419.643 17.2906 419.643 16.9173C419.643 16.5333 419.473 16.2506 419.131 16.0693C418.79 15.8773 418.262 15.6906 417.547 15.5093C416.897 15.3386 416.363 15.1679 415.947 14.9973C415.542 14.8159 415.19 14.5546 414.891 14.2133C414.603 13.8613 414.459 13.4026 414.459 12.8373C414.459 12.3893 414.593 11.9786 414.859 11.6053C415.126 11.2319 415.505 10.9386 415.995 10.7253C416.486 10.5013 417.046 10.3893 417.675 10.3893C418.646 10.3893 419.43 10.6346 420.027 11.1253C420.625 11.6159 420.945 12.2879 420.987 13.1413H419.531C419.499 12.6826 419.313 12.3146 418.971 12.0373C418.641 11.7599 418.193 11.6213 417.627 11.6213C417.105 11.6213 416.689 11.7333 416.379 11.9573C416.07 12.1813 415.915 12.4746 415.915 12.8373C415.915 13.1253 416.006 13.3653 416.187 13.5573C416.379 13.7386 416.614 13.8879 416.891 14.0053C417.179 14.1119 417.574 14.2346 418.075 14.3733C418.705 14.5439 419.217 14.7146 419.611 14.8853C420.006 15.0453 420.342 15.2906 420.619 15.6213C420.907 15.9519 421.057 16.3839 421.067 16.9173C421.067 17.3973 420.934 17.8293 420.667 18.2133C420.401 18.5973 420.022 18.9013 419.531 19.1253C419.051 19.3386 418.497 19.4453 417.867 19.4453ZM68.008 37.7333V42.9013C68.008 43.3279 68.0987 43.6319 68.28 43.8133C68.4613 43.9839 68.776 44.0693 69.224 44.0693H70.296V45.3013H68.984C68.1733 45.3013 67.5653 45.1146 67.16 44.7413C66.7547 44.3679 66.552 43.7546 66.552 42.9013V37.7333H65.416V36.5333H66.552V34.3253H68.008V36.5333H70.296V37.7333H68.008ZM76.4121 36.3733C77.0735 36.3733 77.6708 36.5173 78.2041 36.8053C78.7375 37.0826 79.1535 37.5039 79.4521 38.0693C79.7615 38.6346 79.9161 39.3226 79.9161 40.1333V45.3013H78.4761V40.3413C78.4761 39.4666 78.2575 38.7999 77.8201 38.3413C77.3828 37.8719 76.7855 37.6373 76.0281 37.6373C75.2601 37.6373 74.6468 37.8773 74.1881 38.3573C73.7401 38.8373 73.5161 39.5359 73.5161 40.4533V45.3013H72.0601V33.4613H73.5161V37.7813C73.8041 37.3333 74.1988 36.9866 74.7001 36.7413C75.2121 36.4959 75.7828 36.3733 76.4121 36.3733ZM81.7505 40.8853C81.7505 39.9893 81.9318 39.2053 82.2945 38.5333C82.6572 37.8506 83.1532 37.3226 83.7825 36.9493C84.4225 36.5759 85.1318 36.3893 85.9105 36.3893C86.6785 36.3893 87.3452 36.5546 87.9105 36.8853C88.4758 37.2159 88.8972 37.6319 89.1745 38.1333V36.5333H90.6465V45.3013H89.1745V43.6693C88.8865 44.1813 88.4545 44.6079 87.8785 44.9493C87.3132 45.2799 86.6518 45.4453 85.8945 45.4453C85.1158 45.4453 84.4118 45.2533 83.7825 44.8693C83.1532 44.4853 82.6572 43.9466 82.2945 43.2533C81.9318 42.5599 81.7505 41.7706 81.7505 40.8853ZM89.1745 40.9013C89.1745 40.2399 89.0412 39.6639 88.7745 39.1733C88.5078 38.6826 88.1452 38.3093 87.6865 38.0533C87.2385 37.7866 86.7425 37.6533 86.1985 37.6533C85.6545 37.6533 85.1585 37.7813 84.7105 38.0373C84.2625 38.2933 83.9052 38.6666 83.6385 39.1573C83.3718 39.6479 83.2385 40.2239 83.2385 40.8853C83.2385 41.5573 83.3718 42.1439 83.6385 42.6453C83.9052 43.1359 84.2625 43.5146 84.7105 43.7813C85.1585 44.0373 85.6545 44.1653 86.1985 44.1653C86.7425 44.1653 87.2385 44.0373 87.6865 43.7813C88.1452 43.5146 88.5078 43.1359 88.7745 42.6453C89.0412 42.1439 89.1745 41.5626 89.1745 40.9013ZM94.883 37.7333V42.9013C94.883 43.3279 94.9737 43.6319 95.155 43.8133C95.3363 43.9839 95.651 44.0693 96.099 44.0693H97.171V45.3013H95.859C95.0483 45.3013 94.4403 45.1146 94.035 44.7413C93.6297 44.3679 93.427 43.7546 93.427 42.9013V37.7333H92.291V36.5333H93.427V34.3253H94.883V36.5333H97.171V37.7333H94.883ZM114.881 36.5333L112.145 45.3013H110.641L108.529 38.3413L106.417 45.3013H104.913L102.161 36.5333H103.649L105.665 43.8933L107.841 36.5333H109.329L111.457 43.9093L113.441 36.5333H114.881ZM124.326 40.5813C124.326 40.8586 124.31 41.1519 124.278 41.4613H117.27C117.323 42.3253 117.616 43.0026 118.15 43.4933C118.694 43.9733 119.35 44.2133 120.118 44.2133C120.747 44.2133 121.27 44.0693 121.686 43.7813C122.112 43.4826 122.411 43.0879 122.582 42.5973H124.15C123.915 43.4399 123.446 44.1279 122.742 44.6613C122.038 45.1839 121.163 45.4453 120.118 45.4453C119.286 45.4453 118.539 45.2586 117.878 44.8853C117.227 44.5119 116.715 43.9839 116.342 43.3013C115.968 42.6079 115.782 41.8079 115.782 40.9013C115.782 39.9946 115.963 39.1999 116.326 38.5173C116.688 37.8346 117.195 37.3119 117.846 36.9493C118.507 36.5759 119.264 36.3893 120.118 36.3893C120.95 36.3893 121.686 36.5706 122.326 36.9333C122.966 37.2959 123.456 37.7973 123.798 38.4373C124.15 39.0666 124.326 39.7813 124.326 40.5813ZM122.822 40.2773C122.822 39.7226 122.699 39.2479 122.454 38.8533C122.208 38.4479 121.872 38.1439 121.446 37.9413C121.03 37.7279 120.566 37.6213 120.054 37.6213C119.318 37.6213 118.688 37.8559 118.166 38.3253C117.654 38.7946 117.36 39.4453 117.286 40.2773H122.822ZM132.289 37.7333V42.9013C132.289 43.3279 132.38 43.6319 132.561 43.8133C132.743 43.9839 133.057 44.0693 133.505 44.0693H134.577V45.3013H133.265C132.455 45.3013 131.847 45.1146 131.441 44.7413C131.036 44.3679 130.833 43.7546 130.833 42.9013V37.7333H129.697V36.5333H130.833V34.3253H132.289V36.5333H134.577V37.7333H132.289ZM137.797 37.9573C138.053 37.4559 138.416 37.0666 138.885 36.7893C139.365 36.5119 139.947 36.3733 140.629 36.3733V37.8773H140.245C138.613 37.8773 137.797 38.7626 137.797 40.5333V45.3013H136.341V36.5333H137.797V37.9573ZM150.086 36.5333V45.3013H148.63V44.0053C148.353 44.4533 147.963 44.8053 147.462 45.0613C146.971 45.3066 146.427 45.4293 145.83 45.4293C145.147 45.4293 144.534 45.2906 143.99 45.0133C143.446 44.7253 143.014 44.2986 142.694 43.7333C142.385 43.1679 142.23 42.4799 142.23 41.6693V36.5333H143.67V41.4773C143.67 42.3413 143.889 43.0079 144.326 43.4773C144.763 43.9359 145.361 44.1653 146.118 44.1653C146.897 44.1653 147.51 43.9253 147.958 43.4453C148.406 42.9653 148.63 42.2666 148.63 41.3493V36.5333H150.086ZM155.649 45.4453C154.977 45.4453 154.374 45.3333 153.841 45.1093C153.307 44.8746 152.886 44.5546 152.577 44.1493C152.267 43.7333 152.097 43.2586 152.065 42.7253H153.569C153.611 43.1626 153.814 43.5199 154.177 43.7973C154.55 44.0746 155.035 44.2133 155.633 44.2133C156.187 44.2133 156.625 44.0906 156.945 43.8453C157.265 43.5999 157.425 43.2906 157.425 42.9173C157.425 42.5333 157.254 42.2506 156.913 42.0693C156.571 41.8773 156.043 41.6906 155.329 41.5093C154.678 41.3386 154.145 41.1679 153.729 40.9973C153.323 40.8159 152.971 40.5546 152.673 40.2133C152.385 39.8613 152.241 39.4026 152.241 38.8373C152.241 38.3893 152.374 37.9786 152.641 37.6053C152.907 37.2319 153.286 36.9386 153.777 36.7253C154.267 36.5013 154.827 36.3893 155.457 36.3893C156.427 36.3893 157.211 36.6346 157.809 37.1253C158.406 37.6159 158.726 38.2879 158.769 39.1413H157.313C157.281 38.6826 157.094 38.3146 156.753 38.0373C156.422 37.7599 155.974 37.6213 155.409 37.6213C154.886 37.6213 154.47 37.7333 154.161 37.9573C153.851 38.1813 153.697 38.4746 153.697 38.8373C153.697 39.1253 153.787 39.3653 153.969 39.5573C154.161 39.7386 154.395 39.8879 154.673 40.0053C154.961 40.1119 155.355 40.2346 155.857 40.3733C156.486 40.5439 156.998 40.7146 157.393 40.8853C157.787 41.0453 158.123 41.2906 158.401 41.6213C158.689 41.9519 158.838 42.3839 158.849 42.9173C158.849 43.3973 158.715 43.8293 158.449 44.2133C158.182 44.5973 157.803 44.9013 157.313 45.1253C156.833 45.3386 156.278 45.4453 155.649 45.4453ZM162.68 37.7333V42.9013C162.68 43.3279 162.771 43.6319 162.952 43.8133C163.133 43.9839 163.448 44.0693 163.896 44.0693H164.968V45.3013H163.656C162.845 45.3013 162.237 45.1146 161.832 44.7413C161.427 44.3679 161.224 43.7546 161.224 42.9013V37.7333H160.088V36.5333H161.224V34.3253H162.68V36.5333H164.968V37.7333H162.68ZM170.454 40.8853C170.454 39.9893 170.635 39.2053 170.998 38.5333C171.36 37.8506 171.856 37.3226 172.486 36.9493C173.126 36.5759 173.835 36.3893 174.614 36.3893C175.382 36.3893 176.048 36.5546 176.614 36.8853C177.179 37.2159 177.6 37.6319 177.878 38.1333V36.5333H179.35V45.3013H177.878V43.6693C177.59 44.1813 177.158 44.6079 176.582 44.9493C176.016 45.2799 175.355 45.4453 174.598 45.4453C173.819 45.4453 173.115 45.2533 172.486 44.8693C171.856 44.4853 171.36 43.9466 170.998 43.2533C170.635 42.5599 170.454 41.7706 170.454 40.8853ZM177.878 40.9013C177.878 40.2399 177.744 39.6639 177.478 39.1733C177.211 38.6826 176.848 38.3093 176.39 38.0533C175.942 37.7866 175.446 37.6533 174.902 37.6533C174.358 37.6533 173.862 37.7813 173.414 38.0373C172.966 38.2933 172.608 38.6666 172.342 39.1573C172.075 39.6479 171.942 40.2239 171.942 40.8853C171.942 41.5573 172.075 42.1439 172.342 42.6453C172.608 43.1359 172.966 43.5146 173.414 43.7813C173.862 44.0373 174.358 44.1653 174.902 44.1653C175.446 44.1653 175.942 44.0373 176.39 43.7813C176.848 43.5146 177.211 43.1359 177.478 42.6453C177.744 42.1439 177.878 41.5626 177.878 40.9013ZM186.082 36.3733C187.149 36.3733 188.013 36.6986 188.674 37.3493C189.335 37.9893 189.666 38.9173 189.666 40.1333V45.3013H188.226V40.3413C188.226 39.4666 188.007 38.7999 187.57 38.3413C187.133 37.8719 186.535 37.6373 185.778 37.6373C185.01 37.6373 184.397 37.8773 183.938 38.3573C183.49 38.8373 183.266 39.5359 183.266 40.4533V45.3013H181.81V36.5333H183.266V37.7813C183.554 37.3333 183.943 36.9866 184.434 36.7413C184.935 36.4959 185.485 36.3733 186.082 36.3733ZM191.501 40.8853C191.501 39.9893 191.682 39.2053 192.045 38.5333C192.407 37.8506 192.903 37.3226 193.533 36.9493C194.173 36.5759 194.887 36.3893 195.677 36.3893C196.359 36.3893 196.994 36.5493 197.581 36.8693C198.167 37.1786 198.615 37.5893 198.925 38.1013V33.4613H200.397V45.3013H198.925V43.6533C198.637 44.1759 198.21 44.6079 197.645 44.9493C197.079 45.2799 196.418 45.4453 195.661 45.4453C194.882 45.4453 194.173 45.2533 193.533 44.8693C192.903 44.4853 192.407 43.9466 192.045 43.2533C191.682 42.5599 191.501 41.7706 191.501 40.8853ZM198.925 40.9013C198.925 40.2399 198.791 39.6639 198.525 39.1733C198.258 38.6826 197.895 38.3093 197.437 38.0533C196.989 37.7866 196.493 37.6533 195.949 37.6533C195.405 37.6533 194.909 37.7813 194.461 38.0373C194.013 38.2933 193.655 38.6666 193.389 39.1573C193.122 39.6479 192.989 40.2239 192.989 40.8853C192.989 41.5573 193.122 42.1439 193.389 42.6453C193.655 43.1359 194.013 43.5146 194.461 43.7813C194.909 44.0373 195.405 44.1653 195.949 44.1653C196.493 44.1653 196.989 44.0373 197.437 43.7813C197.895 43.5146 198.258 43.1359 198.525 42.6453C198.791 42.1439 198.925 41.5626 198.925 40.9013ZM218.803 36.5333L216.067 45.3013H214.563L212.451 38.3413L210.339 45.3013H208.835L206.083 36.5333H207.571L209.587 43.8933L211.763 36.5333H213.251L215.379 43.9093L217.363 36.5333H218.803ZM221 35.1093C220.722 35.1093 220.488 35.0133 220.296 34.8213C220.104 34.6293 220.008 34.3946 220.008 34.1173C220.008 33.8399 220.104 33.6053 220.296 33.4133C220.488 33.2213 220.722 33.1253 221 33.1253C221.266 33.1253 221.49 33.2213 221.672 33.4133C221.864 33.6053 221.96 33.8399 221.96 34.1173C221.96 34.3946 221.864 34.6293 221.672 34.8213C221.49 35.0133 221.266 35.1093 221 35.1093ZM221.704 36.5333V45.3013H220.248V36.5333H221.704ZM225.641 33.4613V45.3013H224.185V33.4613H225.641ZM229.579 33.4613V45.3013H228.123V33.4613H229.579ZM238.102 37.7333V42.9013C238.102 43.3279 238.192 43.6319 238.374 43.8133C238.555 43.9839 238.87 44.0693 239.318 44.0693H240.39V45.3013H239.078C238.267 45.3013 237.659 45.1146 237.254 44.7413C236.848 44.3679 236.646 43.7546 236.646 42.9013V37.7333H235.51V36.5333H236.646V34.3253H238.102V36.5333H240.39V37.7333H238.102ZM243.61 37.9573C243.866 37.4559 244.229 37.0666 244.698 36.7893C245.178 36.5119 245.759 36.3733 246.442 36.3733V37.8773H246.058C244.426 37.8773 243.61 38.7626 243.61 40.5333V45.3013H242.154V36.5333H243.61V37.9573ZM256.123 40.5813C256.123 40.8586 256.107 41.1519 256.075 41.4613H249.067C249.12 42.3253 249.413 43.0026 249.947 43.4933C250.491 43.9733 251.147 44.2133 251.915 44.2133C252.544 44.2133 253.067 44.0693 253.483 43.7813C253.909 43.4826 254.208 43.0879 254.379 42.5973H255.947C255.712 43.4399 255.243 44.1279 254.539 44.6613C253.835 45.1839 252.96 45.4453 251.915 45.4453C251.083 45.4453 250.336 45.2586 249.675 44.8853C249.024 44.5119 248.512 43.9839 248.139 43.3013C247.765 42.6079 247.579 41.8079 247.579 40.9013C247.579 39.9946 247.76 39.1999 248.123 38.5173C248.485 37.8346 248.992 37.3119 249.643 36.9493C250.304 36.5759 251.061 36.3893 251.915 36.3893C252.747 36.3893 253.483 36.5706 254.123 36.9333C254.763 37.2959 255.253 37.7973 255.595 38.4373C255.947 39.0666 256.123 39.7813 256.123 40.5813ZM254.619 40.2773C254.619 39.7226 254.496 39.2479 254.251 38.8533C254.005 38.4479 253.669 38.1439 253.243 37.9413C252.827 37.7279 252.363 37.6213 251.851 37.6213C251.115 37.6213 250.485 37.8559 249.963 38.3253C249.451 38.7946 249.157 39.4453 249.083 40.2773H254.619ZM257.501 40.8853C257.501 39.9893 257.682 39.2053 258.045 38.5333C258.407 37.8506 258.903 37.3226 259.533 36.9493C260.173 36.5759 260.882 36.3893 261.661 36.3893C262.429 36.3893 263.095 36.5546 263.661 36.8853C264.226 37.2159 264.647 37.6319 264.925 38.1333V36.5333H266.397V45.3013H264.925V43.6693C264.637 44.1813 264.205 44.6079 263.629 44.9493C263.063 45.2799 262.402 45.4453 261.645 45.4453C260.866 45.4453 260.162 45.2533 259.533 44.8693C258.903 44.4853 258.407 43.9466 258.045 43.2533C257.682 42.5599 257.501 41.7706 257.501 40.8853ZM264.925 40.9013C264.925 40.2399 264.791 39.6639 264.525 39.1733C264.258 38.6826 263.895 38.3093 263.437 38.0533C262.989 37.7866 262.493 37.6533 261.949 37.6533C261.405 37.6533 260.909 37.7813 260.461 38.0373C260.013 38.2933 259.655 38.6666 259.389 39.1573C259.122 39.6479 258.989 40.2239 258.989 40.8853C258.989 41.5573 259.122 42.1439 259.389 42.6453C259.655 43.1359 260.013 43.5146 260.461 43.7813C260.909 44.0373 261.405 44.1653 261.949 44.1653C262.493 44.1653 262.989 44.0373 263.437 43.7813C263.895 43.5146 264.258 43.1359 264.525 42.6453C264.791 42.1439 264.925 41.5626 264.925 40.9013ZM270.633 37.7333V42.9013C270.633 43.3279 270.724 43.6319 270.905 43.8133C271.086 43.9839 271.401 44.0693 271.849 44.0693H272.921V45.3013H271.609C270.798 45.3013 270.19 45.1146 269.785 44.7413C269.38 44.3679 269.177 43.7546 269.177 42.9013V37.7333H268.041V36.5333H269.177V34.3253H270.633V36.5333H272.921V37.7333H270.633ZM286.503 36.5333L281.223 49.4293H279.719L281.447 45.2053L277.911 36.5333H279.527L282.279 43.6373L284.999 36.5333H286.503ZM291.79 45.4453C290.969 45.4453 290.222 45.2586 289.55 44.8853C288.889 44.5119 288.366 43.9839 287.982 43.3013C287.609 42.6079 287.422 41.8079 287.422 40.9013C287.422 40.0053 287.614 39.2159 287.998 38.5333C288.393 37.8399 288.926 37.3119 289.598 36.9493C290.27 36.5759 291.022 36.3893 291.854 36.3893C292.686 36.3893 293.438 36.5759 294.11 36.9493C294.782 37.3119 295.31 37.8346 295.694 38.5173C296.089 39.1999 296.286 39.9946 296.286 40.9013C296.286 41.8079 296.084 42.6079 295.678 43.3013C295.284 43.9839 294.745 44.5119 294.062 44.8853C293.38 45.2586 292.622 45.4453 291.79 45.4453ZM291.79 44.1653C292.313 44.1653 292.804 44.0426 293.262 43.7973C293.721 43.5519 294.089 43.1839 294.366 42.6933C294.654 42.2026 294.798 41.6053 294.798 40.9013C294.798 40.1973 294.66 39.5999 294.382 39.1093C294.105 38.6186 293.742 38.2559 293.294 38.0213C292.846 37.7759 292.361 37.6533 291.838 37.6533C291.305 37.6533 290.814 37.7759 290.366 38.0213C289.929 38.2559 289.577 38.6186 289.31 39.1093C289.044 39.5999 288.91 40.1973 288.91 40.9013C288.91 41.6159 289.038 42.2186 289.294 42.7093C289.561 43.1999 289.913 43.5679 290.35 43.8133C290.788 44.0479 291.268 44.1653 291.79 44.1653ZM305.977 36.5333V45.3013H304.521V44.0053C304.243 44.4533 303.854 44.8053 303.353 45.0613C302.862 45.3066 302.318 45.4293 301.721 45.4293C301.038 45.4293 300.425 45.2906 299.881 45.0133C299.337 44.7253 298.905 44.2986 298.585 43.7333C298.275 43.1679 298.121 42.4799 298.121 41.6693V36.5333H299.561V41.4773C299.561 42.3413 299.779 43.0079 300.217 43.4773C300.654 43.9359 301.251 44.1653 302.009 44.1653C302.787 44.1653 303.401 43.9253 303.849 43.4453C304.297 42.9653 304.521 42.2666 304.521 41.3493V36.5333H305.977ZM314.157 37.9573C314.413 37.4559 314.775 37.0666 315.245 36.7893C315.725 36.5119 316.306 36.3733 316.989 36.3733V37.8773H316.605C314.973 37.8773 314.157 38.7626 314.157 40.5333V45.3013H312.701V36.5333H314.157V37.9573ZM319.422 35.1093C319.144 35.1093 318.91 35.0133 318.718 34.8213C318.526 34.6293 318.43 34.3946 318.43 34.1173C318.43 33.8399 318.526 33.6053 318.718 33.4133C318.91 33.2213 319.144 33.1253 319.422 33.1253C319.688 33.1253 319.912 33.2213 320.094 33.4133C320.286 33.6053 320.382 33.8399 320.382 34.1173C320.382 34.3946 320.286 34.6293 320.094 34.8213C319.912 35.0133 319.688 35.1093 319.422 35.1093ZM320.126 36.5333V45.3013H318.67V36.5333H320.126ZM326.223 36.3893C326.98 36.3893 327.642 36.5546 328.207 36.8853C328.783 37.2159 329.21 37.6319 329.487 38.1333V36.5333H330.959V45.4933C330.959 46.2933 330.788 47.0026 330.447 47.6213C330.106 48.2506 329.615 48.7413 328.975 49.0933C328.346 49.4453 327.61 49.6213 326.767 49.6213C325.615 49.6213 324.655 49.3493 323.887 48.8053C323.119 48.2613 322.666 47.5199 322.527 46.5813H323.967C324.127 47.1146 324.458 47.5413 324.959 47.8613C325.46 48.1919 326.063 48.3573 326.767 48.3573C327.567 48.3573 328.218 48.1066 328.719 47.6053C329.231 47.1039 329.487 46.3999 329.487 45.4933V43.6533C329.199 44.1653 328.772 44.5919 328.207 44.9333C327.642 45.2746 326.98 45.4453 326.223 45.4453C325.444 45.4453 324.735 45.2533 324.095 44.8693C323.466 44.4853 322.97 43.9466 322.607 43.2533C322.244 42.5599 322.063 41.7706 322.063 40.8853C322.063 39.9893 322.244 39.2053 322.607 38.5333C322.97 37.8506 323.466 37.3226 324.095 36.9493C324.735 36.5759 325.444 36.3893 326.223 36.3893ZM329.487 40.9013C329.487 40.2399 329.354 39.6639 329.087 39.1733C328.82 38.6826 328.458 38.3093 327.999 38.0533C327.551 37.7866 327.055 37.6533 326.511 37.6533C325.967 37.6533 325.471 37.7813 325.023 38.0373C324.575 38.2933 324.218 38.6666 323.951 39.1573C323.684 39.6479 323.551 40.2239 323.551 40.8853C323.551 41.5573 323.684 42.1439 323.951 42.6453C324.218 43.1359 324.575 43.5146 325.023 43.7813C325.471 44.0373 325.967 44.1653 326.511 44.1653C327.055 44.1653 327.551 44.0373 327.999 43.7813C328.458 43.5146 328.82 43.1359 329.087 42.6453C329.354 42.1439 329.487 41.5626 329.487 40.9013ZM337.772 36.3733C338.433 36.3733 339.03 36.5173 339.564 36.8053C340.097 37.0826 340.513 37.5039 340.812 38.0693C341.121 38.6346 341.276 39.3226 341.276 40.1333V45.3013H339.836V40.3413C339.836 39.4666 339.617 38.7999 339.18 38.3413C338.742 37.8719 338.145 37.6373 337.388 37.6373C336.62 37.6373 336.006 37.8773 335.548 38.3573C335.1 38.8373 334.876 39.5359 334.876 40.4533V45.3013H333.42V33.4613H334.876V37.7813C335.164 37.3333 335.558 36.9866 336.06 36.7413C336.572 36.4959 337.142 36.3733 337.772 36.3733ZM345.43 37.7333V42.9013C345.43 43.3279 345.521 43.6319 345.702 43.8133C345.883 43.9839 346.198 44.0693 346.646 44.0693H347.718V45.3013H346.406C345.595 45.3013 344.987 45.1146 344.582 44.7413C344.177 44.3679 343.974 43.7546 343.974 42.9013V37.7333H342.838V36.5333H343.974V34.3253H345.43V36.5333H347.718V37.7333H345.43Z" fill="#22343D"/>
</svg>
