<svg width="450" height="53" viewBox="0 0 450 53" fill="none" xmlns="http://www.w3.org/2000/svg">
<path d="M80.248 8.14927L77.016 19.3013H75.384L72.792 10.3253L70.104 19.3013L68.488 19.3173L65.368 8.14927H66.92L69.352 17.6053L72.04 8.14927H73.672L76.232 17.5733L78.68 8.14927H80.248ZM89.8414 14.5813C89.8414 14.8586 89.8254 15.1519 89.7934 15.4613H82.7854C82.8387 16.3253 83.132 17.0026 83.6654 17.4933C84.2094 17.9733 84.8654 18.2133 85.6334 18.2133C86.2627 18.2133 86.7854 18.0693 87.2014 17.7813C87.628 17.4826 87.9267 17.0879 88.0974 16.5973H89.6654C89.4307 17.4399 88.9614 18.1279 88.2574 18.6613C87.5534 19.1839 86.6787 19.4453 85.6334 19.4453C84.8014 19.4453 84.0547 19.2586 83.3934 18.8853C82.7427 18.5119 82.2307 17.9839 81.8574 17.3013C81.484 16.6079 81.2974 15.8079 81.2974 14.9013C81.2974 13.9946 81.4787 13.1999 81.8414 12.5173C82.204 11.8346 82.7107 11.3119 83.3614 10.9493C84.0227 10.5759 84.78 10.3893 85.6334 10.3893C86.4654 10.3893 87.2014 10.5706 87.8414 10.9333C88.4814 11.2959 88.972 11.7973 89.3134 12.4373C89.6654 13.0666 89.8414 13.7813 89.8414 14.5813ZM88.3374 14.2773C88.3374 13.7226 88.2147 13.2479 87.9694 12.8533C87.724 12.4479 87.388 12.1439 86.9614 11.9413C86.5454 11.7279 86.0814 11.6213 85.5694 11.6213C84.8334 11.6213 84.204 11.8559 83.6814 12.3253C83.1694 12.7946 82.876 13.4453 82.8014 14.2773H88.3374ZM97.8049 11.7333V16.9013C97.8049 17.3279 97.8955 17.6319 98.0769 17.8133C98.2582 17.9839 98.5729 18.0693 99.0209 18.0693H100.093V19.3013H98.7809C97.9702 19.3013 97.3622 19.1146 96.9569 18.7413C96.5515 18.3679 96.3489 17.7546 96.3489 16.9013V11.7333H95.2129V10.5333H96.3489V8.32527H97.8049V10.5333H100.093V11.7333H97.8049ZM103.313 11.9573C103.569 11.4559 103.932 11.0666 104.401 10.7893C104.881 10.5119 105.462 10.3733 106.145 10.3733V11.8773H105.761C104.129 11.8773 103.313 12.7626 103.313 14.5333V19.3013H101.857V10.5333H103.313V11.9573ZM107.282 14.8853C107.282 13.9893 107.463 13.2053 107.826 12.5333C108.188 11.8506 108.684 11.3226 109.314 10.9493C109.954 10.5759 110.663 10.3893 111.442 10.3893C112.21 10.3893 112.876 10.5546 113.442 10.8853C114.007 11.2159 114.428 11.6319 114.706 12.1333V10.5333H116.178V19.3013H114.706V17.6693C114.418 18.1813 113.986 18.6079 113.41 18.9493C112.844 19.2799 112.183 19.4453 111.426 19.4453C110.647 19.4453 109.943 19.2533 109.314 18.8693C108.684 18.4853 108.188 17.9466 107.826 17.2533C107.463 16.5599 107.282 15.7706 107.282 14.8853ZM114.706 14.9013C114.706 14.2399 114.572 13.6639 114.306 13.1733C114.039 12.6826 113.676 12.3093 113.218 12.0533C112.77 11.7866 112.274 11.6533 111.73 11.6533C111.186 11.6533 110.69 11.7813 110.242 12.0373C109.794 12.2933 109.436 12.6666 109.17 13.1573C108.903 13.6479 108.77 14.2239 108.77 14.8853C108.77 15.5573 108.903 16.1439 109.17 16.6453C109.436 17.1359 109.794 17.5146 110.242 17.7813C110.69 18.0373 111.186 18.1653 111.73 18.1653C112.274 18.1653 112.77 18.0373 113.218 17.7813C113.676 17.5146 114.039 17.1359 114.306 16.6453C114.572 16.1439 114.706 15.5626 114.706 14.9013ZM118.094 14.9013C118.094 13.9946 118.276 13.2053 118.638 12.5333C119.001 11.8506 119.502 11.3226 120.142 10.9493C120.793 10.5759 121.534 10.3893 122.366 10.3893C123.444 10.3893 124.329 10.6506 125.022 11.1733C125.726 11.6959 126.19 12.4213 126.414 13.3493H124.846C124.697 12.8159 124.404 12.3946 123.966 12.0853C123.54 11.7759 123.006 11.6213 122.366 11.6213C121.534 11.6213 120.862 11.9093 120.35 12.4853C119.838 13.0506 119.582 13.8559 119.582 14.9013C119.582 15.9573 119.838 16.7733 120.35 17.3493C120.862 17.9253 121.534 18.2133 122.366 18.2133C123.006 18.2133 123.54 18.0639 123.966 17.7653C124.393 17.4666 124.686 17.0399 124.846 16.4853H126.414C126.18 17.3813 125.71 18.1013 125.006 18.6453C124.302 19.1786 123.422 19.4453 122.366 19.4453C121.534 19.4453 120.793 19.2586 120.142 18.8853C119.502 18.5119 119.001 17.9839 118.638 17.3013C118.276 16.6186 118.094 15.8186 118.094 14.9013ZM133.253 19.3013L129.813 15.4293V19.3013H128.357V7.46127H129.813V14.4213L133.189 10.5333H135.221L131.093 14.9013L135.237 19.3013H133.253ZM142.633 11.7333V16.9013C142.633 17.3279 142.724 17.6319 142.905 17.8133C143.086 17.9839 143.401 18.0693 143.849 18.0693H144.921V19.3013H143.609C142.798 19.3013 142.19 19.1146 141.785 18.7413C141.38 18.3679 141.177 17.7546 141.177 16.9013V11.7333H140.041V10.5333H141.177V8.32527H142.633V10.5333H144.921V11.7333H142.633ZM151.037 10.3733C151.698 10.3733 152.296 10.5173 152.829 10.8053C153.362 11.0826 153.778 11.5039 154.077 12.0693C154.386 12.6346 154.541 13.3226 154.541 14.1333V19.3013H153.101V14.3413C153.101 13.4666 152.882 12.7999 152.445 12.3413C152.008 11.8719 151.41 11.6373 150.653 11.6373C149.885 11.6373 149.272 11.8773 148.813 12.3573C148.365 12.8373 148.141 13.5359 148.141 14.4533V19.3013H146.685V7.46127H148.141V11.7813C148.429 11.3333 148.824 10.9866 149.325 10.7413C149.837 10.4959 150.408 10.3733 151.037 10.3733ZM164.92 14.5813C164.92 14.8586 164.904 15.1519 164.872 15.4613H157.864C157.917 16.3253 158.21 17.0026 158.744 17.4933C159.288 17.9733 159.944 18.2133 160.712 18.2133C161.341 18.2133 161.864 18.0693 162.28 17.7813C162.706 17.4826 163.005 17.0879 163.176 16.5973H164.744C164.509 17.4399 164.04 18.1279 163.336 18.6613C162.632 19.1839 161.757 19.4453 160.712 19.4453C159.88 19.4453 159.133 19.2586 158.472 18.8853C157.821 18.5119 157.309 17.9839 156.936 17.3013C156.562 16.6079 156.376 15.8079 156.376 14.9013C156.376 13.9946 156.557 13.1999 156.92 12.5173C157.282 11.8346 157.789 11.3119 158.44 10.9493C159.101 10.5759 159.858 10.3893 160.712 10.3893C161.544 10.3893 162.28 10.5706 162.92 10.9333C163.56 11.2959 164.05 11.7973 164.392 12.4373C164.744 13.0666 164.92 13.7813 164.92 14.5813ZM163.416 14.2773C163.416 13.7226 163.293 13.2479 163.048 12.8533C162.802 12.4479 162.466 12.1439 162.04 11.9413C161.624 11.7279 161.16 11.6213 160.648 11.6213C159.912 11.6213 159.282 11.8559 158.76 12.3253C158.248 12.7946 157.954 13.4453 157.88 14.2773H163.416ZM181.651 10.3733C182.334 10.3733 182.942 10.5173 183.475 10.8053C184.008 11.0826 184.43 11.5039 184.739 12.0693C185.048 12.6346 185.203 13.3226 185.203 14.1333V19.3013H183.763V14.3413C183.763 13.4666 183.544 12.7999 183.107 12.3413C182.68 11.8719 182.099 11.6373 181.363 11.6373C180.606 11.6373 180.003 11.8826 179.555 12.3733C179.107 12.8533 178.883 13.5519 178.883 14.4693V19.3013H177.443V14.3413C177.443 13.4666 177.224 12.7999 176.787 12.3413C176.36 11.8719 175.779 11.6373 175.043 11.6373C174.286 11.6373 173.683 11.8826 173.235 12.3733C172.787 12.8533 172.563 13.5519 172.563 14.4693V19.3013H171.107V10.5333H172.563V11.7973C172.851 11.3386 173.235 10.9866 173.715 10.7413C174.206 10.4959 174.744 10.3733 175.331 10.3733C176.067 10.3733 176.718 10.5386 177.283 10.8693C177.848 11.1999 178.27 11.6853 178.547 12.3253C178.792 11.7066 179.198 11.2266 179.763 10.8853C180.328 10.5439 180.958 10.3733 181.651 10.3733ZM187.047 14.8853C187.047 13.9893 187.229 13.2053 187.591 12.5333C187.954 11.8506 188.45 11.3226 189.079 10.9493C189.719 10.5759 190.429 10.3893 191.207 10.3893C191.975 10.3893 192.642 10.5546 193.207 10.8853C193.773 11.2159 194.194 11.6319 194.471 12.1333V10.5333H195.943V19.3013H194.471V17.6693C194.183 18.1813 193.751 18.6079 193.175 18.9493C192.61 19.2799 191.949 19.4453 191.191 19.4453C190.413 19.4453 189.709 19.2533 189.079 18.8693C188.45 18.4853 187.954 17.9466 187.591 17.2533C187.229 16.5599 187.047 15.7706 187.047 14.8853ZM194.471 14.9013C194.471 14.2399 194.338 13.6639 194.071 13.1733C193.805 12.6826 193.442 12.3093 192.983 12.0533C192.535 11.7866 192.039 11.6533 191.495 11.6533C190.951 11.6533 190.455 11.7813 190.007 12.0373C189.559 12.2933 189.202 12.6666 188.935 13.1573C188.669 13.6479 188.535 14.2239 188.535 14.8853C188.535 15.5573 188.669 16.1439 188.935 16.6453C189.202 17.1359 189.559 17.5146 190.007 17.7813C190.455 18.0373 190.951 18.1653 191.495 18.1653C192.039 18.1653 192.535 18.0373 192.983 17.7813C193.442 17.5146 193.805 17.1359 194.071 16.6453C194.338 16.1439 194.471 15.5626 194.471 14.9013ZM199.86 11.9573C200.116 11.4559 200.479 11.0666 200.948 10.7893C201.428 10.5119 202.009 10.3733 202.692 10.3733V11.8773H202.308C200.676 11.8773 199.86 12.7626 199.86 14.5333V19.3013H198.404V10.5333H199.86V11.9573ZM209.269 19.3013L205.829 15.4293V19.3013H204.373V7.46127H205.829V14.4213L209.205 10.5333H211.237L207.109 14.9013L211.253 19.3013H209.269ZM220.607 14.5813C220.607 14.8586 220.591 15.1519 220.559 15.4613H213.551C213.604 16.3253 213.898 17.0026 214.431 17.4933C214.975 17.9733 215.631 18.2133 216.399 18.2133C217.028 18.2133 217.551 18.0693 217.967 17.7813C218.394 17.4826 218.692 17.0879 218.863 16.5973H220.431C220.196 17.4399 219.727 18.1279 219.023 18.6613C218.319 19.1839 217.444 19.4453 216.399 19.4453C215.567 19.4453 214.82 19.2586 214.159 18.8853C213.508 18.5119 212.996 17.9839 212.623 17.3013C212.25 16.6079 212.063 15.8079 212.063 14.9013C212.063 13.9946 212.244 13.1999 212.607 12.5173C212.97 11.8346 213.476 11.3119 214.127 10.9493C214.788 10.5759 215.546 10.3893 216.399 10.3893C217.231 10.3893 217.967 10.5706 218.607 10.9333C219.247 11.2959 219.738 11.7973 220.079 12.4373C220.431 13.0666 220.607 13.7813 220.607 14.5813ZM219.103 14.2773C219.103 13.7226 218.98 13.2479 218.735 12.8533C218.49 12.4479 218.154 12.1439 217.727 11.9413C217.311 11.7279 216.847 11.6213 216.335 11.6213C215.599 11.6213 214.97 11.8559 214.447 12.3253C213.935 12.7946 213.642 13.4453 213.567 14.2773H219.103ZM224.305 11.7333V16.9013C224.305 17.3279 224.396 17.6319 224.577 17.8133C224.758 17.9839 225.073 18.0693 225.521 18.0693H226.593V19.3013H225.281C224.47 19.3013 223.862 19.1146 223.457 18.7413C223.052 18.3679 222.849 17.7546 222.849 16.9013V11.7333H221.713V10.5333H222.849V8.32527H224.305V10.5333H226.593V11.7333H224.305ZM231.461 19.4453C230.789 19.4453 230.186 19.3333 229.653 19.1093C229.12 18.8746 228.698 18.5546 228.389 18.1493C228.08 17.7333 227.909 17.2586 227.877 16.7253H229.381C229.424 17.1626 229.626 17.5199 229.989 17.7973C230.362 18.0746 230.848 18.2133 231.445 18.2133C232 18.2133 232.437 18.0906 232.757 17.8453C233.077 17.5999 233.237 17.2906 233.237 16.9173C233.237 16.5333 233.066 16.2506 232.725 16.0693C232.384 15.8773 231.856 15.6906 231.141 15.5093C230.49 15.3386 229.957 15.1679 229.541 14.9973C229.136 14.8159 228.784 14.5546 228.485 14.2133C228.197 13.8613 228.053 13.4026 228.053 12.8373C228.053 12.3893 228.186 11.9786 228.453 11.6053C228.72 11.2319 229.098 10.9386 229.589 10.7253C230.08 10.5013 230.64 10.3893 231.269 10.3893C232.24 10.3893 233.024 10.6346 233.621 11.1253C234.218 11.6159 234.538 12.2879 234.581 13.1413H233.125C233.093 12.6826 232.906 12.3146 232.565 12.0373C232.234 11.7599 231.786 11.6213 231.221 11.6213C230.698 11.6213 230.282 11.7333 229.973 11.9573C229.664 12.1813 229.509 12.4746 229.509 12.8373C229.509 13.1253 229.6 13.3653 229.781 13.5573C229.973 13.7386 230.208 13.8879 230.485 14.0053C230.773 14.1119 231.168 14.2346 231.669 14.3733C232.298 14.5439 232.81 14.7146 233.205 14.8853C233.6 15.0453 233.936 15.2906 234.213 15.6213C234.501 15.9519 234.65 16.3839 234.661 16.9173C234.661 17.3973 234.528 17.8293 234.261 18.2133C233.994 18.5973 233.616 18.9013 233.125 19.1253C232.645 19.3386 232.09 19.4453 231.461 19.4453ZM240.438 14.8853C240.438 13.9893 240.619 13.2053 240.982 12.5333C241.345 11.8506 241.841 11.3226 242.47 10.9493C243.11 10.5759 243.825 10.3893 244.614 10.3893C245.297 10.3893 245.931 10.5493 246.518 10.8693C247.105 11.1786 247.553 11.5893 247.862 12.1013V7.46127H249.334V19.3013H247.862V17.6533C247.574 18.1759 247.147 18.6079 246.582 18.9493C246.017 19.2799 245.355 19.4453 244.598 19.4453C243.819 19.4453 243.11 19.2533 242.47 18.8693C241.841 18.4853 241.345 17.9466 240.982 17.2533C240.619 16.5599 240.438 15.7706 240.438 14.8853ZM247.862 14.9013C247.862 14.2399 247.729 13.6639 247.462 13.1733C247.195 12.6826 246.833 12.3093 246.374 12.0533C245.926 11.7866 245.43 11.6533 244.886 11.6533C244.342 11.6533 243.846 11.7813 243.398 12.0373C242.95 12.2933 242.593 12.6666 242.326 13.1573C242.059 13.6479 241.926 14.2239 241.926 14.8853C241.926 15.5573 242.059 16.1439 242.326 16.6453C242.593 17.1359 242.95 17.5146 243.398 17.7813C243.846 18.0373 244.342 18.1653 244.886 18.1653C245.43 18.1653 245.926 18.0373 246.374 17.7813C246.833 17.5146 247.195 17.1359 247.462 16.6453C247.729 16.1439 247.862 15.5626 247.862 14.9013ZM251.251 14.8853C251.251 13.9893 251.432 13.2053 251.795 12.5333C252.157 11.8506 252.653 11.3226 253.283 10.9493C253.923 10.5759 254.632 10.3893 255.411 10.3893C256.179 10.3893 256.845 10.5546 257.411 10.8853C257.976 11.2159 258.397 11.6319 258.675 12.1333V10.5333H260.147V19.3013H258.675V17.6693C258.387 18.1813 257.955 18.6079 257.379 18.9493C256.813 19.2799 256.152 19.4453 255.395 19.4453C254.616 19.4453 253.912 19.2533 253.283 18.8693C252.653 18.4853 252.157 17.9466 251.795 17.2533C251.432 16.5599 251.251 15.7706 251.251 14.8853ZM258.675 14.9013C258.675 14.2399 258.541 13.6639 258.275 13.1733C258.008 12.6826 257.645 12.3093 257.187 12.0533C256.739 11.7866 256.243 11.6533 255.699 11.6533C255.155 11.6533 254.659 11.7813 254.211 12.0373C253.763 12.2933 253.405 12.6666 253.139 13.1573C252.872 13.6479 252.739 14.2239 252.739 14.8853C252.739 15.5573 252.872 16.1439 253.139 16.6453C253.405 17.1359 253.763 17.5146 254.211 17.7813C254.659 18.0373 255.155 18.1653 255.699 18.1653C256.243 18.1653 256.739 18.0373 257.187 17.7813C257.645 17.5146 258.008 17.1359 258.275 16.6453C258.541 16.1439 258.675 15.5626 258.675 14.9013ZM263.359 9.10927C263.082 9.10927 262.847 9.01327 262.655 8.82127C262.463 8.62927 262.367 8.3946 262.367 8.11727C262.367 7.83994 262.463 7.60527 262.655 7.41327C262.847 7.22127 263.082 7.12527 263.359 7.12527C263.626 7.12527 263.85 7.22127 264.031 7.41327C264.223 7.60527 264.319 7.83994 264.319 8.11727C264.319 8.3946 264.223 8.62927 264.031 8.82127C263.85 9.01327 263.626 9.10927 263.359 9.10927ZM264.063 10.5333V19.3013H262.607V10.5333H264.063ZM268.001 7.46127V19.3013H266.545V7.46127H268.001ZM278.034 10.5333L272.754 23.4293H271.25L272.978 19.2053L269.442 10.5333H271.058L273.81 17.6373L276.53 10.5333H278.034ZM283.219 14.8853C283.219 13.9893 283.401 13.2053 283.763 12.5333C284.126 11.8506 284.622 11.3226 285.251 10.9493C285.891 10.5759 286.601 10.3893 287.379 10.3893C288.147 10.3893 288.814 10.5546 289.379 10.8853C289.945 11.2159 290.366 11.6319 290.643 12.1333V10.5333H292.115V19.3013H290.643V17.6693C290.355 18.1813 289.923 18.6079 289.347 18.9493C288.782 19.2799 288.121 19.4453 287.363 19.4453C286.585 19.4453 285.881 19.2533 285.251 18.8693C284.622 18.4853 284.126 17.9466 283.763 17.2533C283.401 16.5599 283.219 15.7706 283.219 14.8853ZM290.643 14.9013C290.643 14.2399 290.51 13.6639 290.243 13.1733C289.977 12.6826 289.614 12.3093 289.155 12.0533C288.707 11.7866 288.211 11.6533 287.667 11.6533C287.123 11.6533 286.627 11.7813 286.179 12.0373C285.731 12.2933 285.374 12.6666 285.107 13.1573C284.841 13.6479 284.707 14.2239 284.707 14.8853C284.707 15.5573 284.841 16.1439 285.107 16.6453C285.374 17.1359 285.731 17.5146 286.179 17.7813C286.627 18.0373 287.123 18.1653 287.667 18.1653C288.211 18.1653 288.707 18.0373 289.155 17.7813C289.614 17.5146 289.977 17.1359 290.243 16.6453C290.51 16.1439 290.643 15.5626 290.643 14.9013ZM298.848 10.3733C299.914 10.3733 300.778 10.6986 301.44 11.3493C302.101 11.9893 302.432 12.9173 302.432 14.1333V19.3013H300.992V14.3413C300.992 13.4666 300.773 12.7999 300.336 12.3413C299.898 11.8719 299.301 11.6373 298.544 11.6373C297.776 11.6373 297.162 11.8773 296.704 12.3573C296.256 12.8373 296.032 13.5359 296.032 14.4533V19.3013H294.576V10.5333H296.032V11.7813C296.32 11.3333 296.709 10.9866 297.2 10.7413C297.701 10.4959 298.25 10.3733 298.848 10.3733ZM304.266 14.8853C304.266 13.9893 304.447 13.2053 304.81 12.5333C305.173 11.8506 305.669 11.3226 306.298 10.9493C306.938 10.5759 307.653 10.3893 308.442 10.3893C309.125 10.3893 309.759 10.5493 310.346 10.8693C310.933 11.1786 311.381 11.5893 311.69 12.1013V7.46127H313.162V19.3013H311.69V17.6533C311.402 18.1759 310.975 18.6079 310.41 18.9493C309.845 19.2799 309.183 19.4453 308.426 19.4453C307.647 19.4453 306.938 19.2533 306.298 18.8693C305.669 18.4853 305.173 17.9466 304.81 17.2533C304.447 16.5599 304.266 15.7706 304.266 14.8853ZM311.69 14.9013C311.69 14.2399 311.557 13.6639 311.29 13.1733C311.023 12.6826 310.661 12.3093 310.202 12.0533C309.754 11.7866 309.258 11.6533 308.714 11.6533C308.17 11.6533 307.674 11.7813 307.226 12.0373C306.778 12.2933 306.421 12.6666 306.154 13.1573C305.887 13.6479 305.754 14.2239 305.754 14.8853C305.754 15.5573 305.887 16.1439 306.154 16.6453C306.421 17.1359 306.778 17.5146 307.226 17.7813C307.674 18.0373 308.17 18.1653 308.714 18.1653C309.258 18.1653 309.754 18.0373 310.202 17.7813C310.661 17.5146 311.023 17.1359 311.29 16.6453C311.557 16.1439 311.69 15.5626 311.69 14.9013ZM324.784 19.3013L321.344 15.4293V19.3013H319.888V7.46127H321.344V14.4213L324.72 10.5333H326.752L322.624 14.9013L326.768 19.3013H324.784ZM332.395 10.3733C333.461 10.3733 334.325 10.6986 334.987 11.3493C335.648 11.9893 335.979 12.9173 335.979 14.1333V19.3013H334.539V14.3413C334.539 13.4666 334.32 12.7999 333.883 12.3413C333.445 11.8719 332.848 11.6373 332.091 11.6373C331.323 11.6373 330.709 11.8773 330.251 12.3573C329.803 12.8373 329.579 13.5359 329.579 14.4533V19.3013H328.123V10.5333H329.579V11.7813C329.867 11.3333 330.256 10.9866 330.747 10.7413C331.248 10.4959 331.797 10.3733 332.395 10.3733ZM342.181 19.4453C341.36 19.4453 340.613 19.2586 339.941 18.8853C339.28 18.5119 338.757 17.9839 338.373 17.3013C338 16.6079 337.813 15.8079 337.813 14.9013C337.813 14.0053 338.005 13.2159 338.389 12.5333C338.784 11.8399 339.317 11.3119 339.989 10.9493C340.661 10.5759 341.413 10.3893 342.245 10.3893C343.077 10.3893 343.829 10.5759 344.501 10.9493C345.173 11.3119 345.701 11.8346 346.085 12.5173C346.48 13.1999 346.677 13.9946 346.677 14.9013C346.677 15.8079 346.474 16.6079 346.069 17.3013C345.674 17.9839 345.136 18.5119 344.453 18.8853C343.77 19.2586 343.013 19.4453 342.181 19.4453ZM342.181 18.1653C342.704 18.1653 343.194 18.0426 343.653 17.7973C344.112 17.5519 344.48 17.1839 344.757 16.6933C345.045 16.2026 345.189 15.6053 345.189 14.9013C345.189 14.1973 345.05 13.5999 344.773 13.1093C344.496 12.6186 344.133 12.2559 343.685 12.0213C343.237 11.7759 342.752 11.6533 342.229 11.6533C341.696 11.6533 341.205 11.7759 340.757 12.0213C340.32 12.2559 339.968 12.6186 339.701 13.1093C339.434 13.5999 339.301 14.1973 339.301 14.9013C339.301 15.6159 339.429 16.2186 339.685 16.7093C339.952 17.1999 340.304 17.5679 340.741 17.8133C341.178 18.0479 341.658 18.1653 342.181 18.1653ZM360.271 10.5333L357.535 19.3013H356.031L353.919 12.3413L351.807 19.3013H350.303L347.551 10.5333H349.039L351.055 17.8933L353.231 10.5333H354.719L356.847 17.9093L358.831 10.5333H360.271ZM377.662 10.5333L374.926 19.3013H373.422L371.31 12.3413L369.198 19.3013H367.694L364.942 10.5333H366.43L368.446 17.8933L370.622 10.5333H372.11L374.238 17.9093L376.222 10.5333H377.662ZM383.459 10.3733C384.12 10.3733 384.718 10.5173 385.251 10.8053C385.784 11.0826 386.2 11.5039 386.499 12.0693C386.808 12.6346 386.963 13.3226 386.963 14.1333V19.3013H385.523V14.3413C385.523 13.4666 385.304 12.7999 384.867 12.3413C384.43 11.8719 383.832 11.6373 383.075 11.6373C382.307 11.6373 381.694 11.8773 381.235 12.3573C380.787 12.8373 380.563 13.5359 380.563 14.4533V19.3013H379.107V7.46127H380.563V11.7813C380.851 11.3333 381.246 10.9866 381.747 10.7413C382.259 10.4959 382.83 10.3733 383.459 10.3733ZM397.341 14.5813C397.341 14.8586 397.325 15.1519 397.293 15.4613H390.285C390.339 16.3253 390.632 17.0026 391.165 17.4933C391.709 17.9733 392.365 18.2133 393.133 18.2133C393.763 18.2133 394.285 18.0693 394.701 17.7813C395.128 17.4826 395.427 17.0879 395.597 16.5973H397.165C396.931 17.4399 396.461 18.1279 395.757 18.6613C395.053 19.1839 394.179 19.4453 393.133 19.4453C392.301 19.4453 391.555 19.2586 390.893 18.8853C390.243 18.5119 389.731 17.9839 389.357 17.3013C388.984 16.6079 388.797 15.8079 388.797 14.9013C388.797 13.9946 388.979 13.1999 389.341 12.5173C389.704 11.8346 390.211 11.3119 390.861 10.9493C391.523 10.5759 392.28 10.3893 393.133 10.3893C393.965 10.3893 394.701 10.5706 395.341 10.9333C395.981 11.2959 396.472 11.7973 396.813 12.4373C397.165 13.0666 397.341 13.7813 397.341 14.5813ZM395.837 14.2773C395.837 13.7226 395.715 13.2479 395.469 12.8533C395.224 12.4479 394.888 12.1439 394.461 11.9413C394.045 11.7279 393.581 11.6213 393.069 11.6213C392.333 11.6213 391.704 11.8559 391.181 12.3253C390.669 12.7946 390.376 13.4453 390.301 14.2773H395.837ZM400.719 11.9573C400.975 11.4559 401.338 11.0666 401.807 10.7893C402.287 10.5119 402.869 10.3733 403.551 10.3733V11.8773H403.167C401.535 11.8773 400.719 12.7626 400.719 14.5333V19.3013H399.263V10.5333H400.719V11.9573ZM413.232 14.5813C413.232 14.8586 413.216 15.1519 413.184 15.4613H406.176C406.229 16.3253 406.523 17.0026 407.056 17.4933C407.6 17.9733 408.256 18.2133 409.024 18.2133C409.653 18.2133 410.176 18.0693 410.592 17.7813C411.019 17.4826 411.317 17.0879 411.488 16.5973H413.056C412.821 17.4399 412.352 18.1279 411.648 18.6613C410.944 19.1839 410.069 19.4453 409.024 19.4453C408.192 19.4453 407.445 19.2586 406.784 18.8853C406.133 18.5119 405.621 17.9839 405.248 17.3013C404.875 16.6079 404.688 15.8079 404.688 14.9013C404.688 13.9946 404.869 13.1999 405.232 12.5173C405.595 11.8346 406.101 11.3119 406.752 10.9493C407.413 10.5759 408.171 10.3893 409.024 10.3893C409.856 10.3893 410.592 10.5706 411.232 10.9333C411.872 11.2959 412.363 11.7973 412.704 12.4373C413.056 13.0666 413.232 13.7813 413.232 14.5813ZM411.728 14.2773C411.728 13.7226 411.605 13.2479 411.36 12.8533C411.115 12.4479 410.779 12.1439 410.352 11.9413C409.936 11.7279 409.472 11.6213 408.96 11.6213C408.224 11.6213 407.595 11.8559 407.072 12.3253C406.56 12.7946 406.267 13.4453 406.192 14.2773H411.728ZM421.196 11.7333V16.9013C421.196 17.3279 421.286 17.6319 421.468 17.8133C421.649 17.9839 421.964 18.0693 422.411 18.0693H423.484V19.3013H422.172C421.361 19.3013 420.753 19.1146 420.348 18.7413C419.942 18.3679 419.74 17.7546 419.74 16.9013V11.7333H418.604V10.5333H419.74V8.32527H421.196V10.5333H423.484V11.7333H421.196ZM429.6 10.3733C430.261 10.3733 430.858 10.5173 431.392 10.8053C431.925 11.0826 432.341 11.5039 432.64 12.0693C432.949 12.6346 433.104 13.3226 433.104 14.1333V19.3013H431.664V14.3413C431.664 13.4666 431.445 12.7999 431.008 12.3413C430.57 11.8719 429.973 11.6373 429.216 11.6373C428.448 11.6373 427.834 11.8773 427.376 12.3573C426.928 12.8373 426.704 13.5359 426.704 14.4533V19.3013H425.248V7.46127H426.704V11.7813C426.992 11.3333 427.386 10.9866 427.888 10.7413C428.4 10.4959 428.97 10.3733 429.6 10.3733ZM443.482 14.5813C443.482 14.8586 443.466 15.1519 443.434 15.4613H436.426C436.479 16.3253 436.773 17.0026 437.306 17.4933C437.85 17.9733 438.506 18.2133 439.274 18.2133C439.903 18.2133 440.426 18.0693 440.842 17.7813C441.269 17.4826 441.567 17.0879 441.738 16.5973H443.306C443.071 17.4399 442.602 18.1279 441.898 18.6613C441.194 19.1839 440.319 19.4453 439.274 19.4453C438.442 19.4453 437.695 19.2586 437.034 18.8853C436.383 18.5119 435.871 17.9839 435.498 17.3013C435.125 16.6079 434.938 15.8079 434.938 14.9013C434.938 13.9946 435.119 13.1999 435.482 12.5173C435.845 11.8346 436.351 11.3119 437.002 10.9493C437.663 10.5759 438.421 10.3893 439.274 10.3893C440.106 10.3893 440.842 10.5706 441.482 10.9333C442.122 11.2959 442.613 11.7973 442.954 12.4373C443.306 13.0666 443.482 13.7813 443.482 14.5813ZM441.978 14.2773C441.978 13.7226 441.855 13.2479 441.61 12.8533C441.365 12.4479 441.029 12.1439 440.602 11.9413C440.186 11.7279 439.722 11.6213 439.21 11.6213C438.474 11.6213 437.845 11.8559 437.322 12.3253C436.81 12.7946 436.517 13.4453 436.442 14.2773H441.978ZM69.336 45.4453C68.664 45.4453 68.0613 45.3333 67.528 45.1093C66.9947 44.8746 66.5733 44.5546 66.264 44.1493C65.9547 43.7333 65.784 43.2586 65.752 42.7253H67.256C67.2987 43.1626 67.5013 43.5199 67.864 43.7973C68.2373 44.0746 68.7227 44.2133 69.32 44.2133C69.8747 44.2133 70.312 44.0906 70.632 43.8453C70.952 43.5999 71.112 43.2906 71.112 42.9173C71.112 42.5333 70.9413 42.2506 70.6 42.0693C70.2587 41.8773 69.7307 41.6906 69.016 41.5093C68.3653 41.3386 67.832 41.1679 67.416 40.9973C67.0107 40.8159 66.6587 40.5546 66.36 40.2133C66.072 39.8613 65.928 39.4026 65.928 38.8373C65.928 38.3893 66.0613 37.9786 66.328 37.6053C66.5947 37.2319 66.9733 36.9386 67.464 36.7253C67.9547 36.5013 68.5147 36.3893 69.144 36.3893C70.1147 36.3893 70.8987 36.6346 71.496 37.1253C72.0933 37.6159 72.4133 38.2879 72.456 39.1413H71C70.968 38.6826 70.7813 38.3146 70.44 38.0373C70.1093 37.7599 69.6613 37.6213 69.096 37.6213C68.5733 37.6213 68.1573 37.7333 67.848 37.9573C67.5387 38.1813 67.384 38.4746 67.384 38.8373C67.384 39.1253 67.4747 39.3653 67.656 39.5573C67.848 39.7386 68.0827 39.8879 68.36 40.0053C68.648 40.1119 69.0427 40.2346 69.544 40.3733C70.1733 40.5439 70.6853 40.7146 71.08 40.8853C71.4747 41.0453 71.8107 41.2906 72.088 41.6213C72.376 41.9519 72.5253 42.3839 72.536 42.9173C72.536 43.3973 72.4027 43.8293 72.136 44.2133C71.8693 44.5973 71.4907 44.9013 71 45.1253C70.52 45.3386 69.9653 45.4453 69.336 45.4453ZM74.0474 40.8853C74.0474 39.9893 74.2287 39.2053 74.5914 38.5333C74.954 37.8506 75.45 37.3226 76.0794 36.9493C76.7194 36.5759 77.4287 36.3893 78.2074 36.3893C78.9754 36.3893 79.642 36.5546 80.2074 36.8853C80.7727 37.2159 81.194 37.6319 81.4714 38.1333V36.5333H82.9434V45.3013H81.4714V43.6693C81.1834 44.1813 80.7514 44.6079 80.1754 44.9493C79.61 45.2799 78.9487 45.4453 78.1914 45.4453C77.4127 45.4453 76.7087 45.2533 76.0794 44.8693C75.45 44.4853 74.954 43.9466 74.5914 43.2533C74.2287 42.5599 74.0474 41.7706 74.0474 40.8853ZM81.4714 40.9013C81.4714 40.2399 81.338 39.6639 81.0714 39.1733C80.8047 38.6826 80.442 38.3093 79.9834 38.0533C79.5354 37.7866 79.0394 37.6533 78.4954 37.6533C77.9514 37.6533 77.4554 37.7813 77.0074 38.0373C76.5594 38.2933 76.202 38.6666 75.9354 39.1573C75.6687 39.6479 75.5354 40.2239 75.5354 40.8853C75.5354 41.5573 75.6687 42.1439 75.9354 42.6453C76.202 43.1359 76.5594 43.5146 77.0074 43.7813C77.4554 44.0373 77.9514 44.1653 78.4954 44.1653C79.0394 44.1653 79.5354 44.0373 79.9834 43.7813C80.442 43.5146 80.8047 43.1359 81.0714 42.6453C81.338 42.1439 81.4714 41.5626 81.4714 40.9013ZM88.6679 43.9573L91.3879 36.5333H92.9399L89.4999 45.3013H87.8039L84.3639 36.5333H85.9319L88.6679 43.9573ZM95.1246 35.1093C94.8473 35.1093 94.6126 35.0133 94.4206 34.8213C94.2286 34.6293 94.1326 34.3946 94.1326 34.1173C94.1326 33.8399 94.2286 33.6053 94.4206 33.4133C94.6126 33.2213 94.8473 33.1253 95.1246 33.1253C95.3913 33.1253 95.6153 33.2213 95.7966 33.4133C95.9886 33.6053 96.0846 33.8399 96.0846 34.1173C96.0846 34.3946 95.9886 34.6293 95.7966 34.8213C95.6153 35.0133 95.3913 35.1093 95.1246 35.1093ZM95.8286 36.5333V45.3013H94.3726V36.5333H95.8286ZM102.582 36.3733C103.649 36.3733 104.513 36.6986 105.174 37.3493C105.835 37.9893 106.166 38.9173 106.166 40.1333V45.3013H104.726V40.3413C104.726 39.4666 104.507 38.7999 104.07 38.3413C103.633 37.8719 103.035 37.6373 102.278 37.6373C101.51 37.6373 100.897 37.8773 100.438 38.3573C99.9901 38.8373 99.7661 39.5359 99.7661 40.4533V45.3013H98.3101V36.5333H99.7661V37.7813C100.054 37.3333 100.443 36.9866 100.934 36.7413C101.435 36.4959 101.985 36.3733 102.582 36.3733ZM112.161 36.3893C112.918 36.3893 113.579 36.5546 114.145 36.8853C114.721 37.2159 115.147 37.6319 115.425 38.1333V36.5333H116.897V45.4933C116.897 46.2933 116.726 47.0026 116.385 47.6213C116.043 48.2506 115.553 48.7413 114.913 49.0933C114.283 49.4453 113.547 49.6213 112.705 49.6213C111.553 49.6213 110.593 49.3493 109.825 48.8053C109.057 48.2613 108.603 47.5199 108.465 46.5813H109.905C110.065 47.1146 110.395 47.5413 110.897 47.8613C111.398 48.1919 112.001 48.3573 112.705 48.3573C113.505 48.3573 114.155 48.1066 114.657 47.6053C115.169 47.1039 115.425 46.3999 115.425 45.4933V43.6533C115.137 44.1653 114.71 44.5919 114.145 44.9333C113.579 45.2746 112.918 45.4453 112.161 45.4453C111.382 45.4453 110.673 45.2533 110.033 44.8693C109.403 44.4853 108.907 43.9466 108.545 43.2533C108.182 42.5599 108.001 41.7706 108.001 40.8853C108.001 39.9893 108.182 39.2053 108.545 38.5333C108.907 37.8506 109.403 37.3226 110.033 36.9493C110.673 36.5759 111.382 36.3893 112.161 36.3893ZM115.425 40.9013C115.425 40.2399 115.291 39.6639 115.025 39.1733C114.758 38.6826 114.395 38.3093 113.937 38.0533C113.489 37.7866 112.993 37.6533 112.449 37.6533C111.905 37.6533 111.409 37.7813 110.961 38.0373C110.513 38.2933 110.155 38.6666 109.889 39.1573C109.622 39.6479 109.489 40.2239 109.489 40.8853C109.489 41.5573 109.622 42.1439 109.889 42.6453C110.155 43.1359 110.513 43.5146 110.961 43.7813C111.409 44.0373 111.905 44.1653 112.449 44.1653C112.993 44.1653 113.489 44.0373 113.937 43.7813C114.395 43.5146 114.758 43.1359 115.025 42.6453C115.291 42.1439 115.425 41.5626 115.425 40.9013ZM122.461 45.4453C121.789 45.4453 121.186 45.3333 120.653 45.1093C120.12 44.8746 119.698 44.5546 119.389 44.1493C119.08 43.7333 118.909 43.2586 118.877 42.7253H120.381C120.424 43.1626 120.626 43.5199 120.989 43.7973C121.362 44.0746 121.848 44.2133 122.445 44.2133C123 44.2133 123.437 44.0906 123.757 43.8453C124.077 43.5999 124.237 43.2906 124.237 42.9173C124.237 42.5333 124.066 42.2506 123.725 42.0693C123.384 41.8773 122.856 41.6906 122.141 41.5093C121.49 41.3386 120.957 41.1679 120.541 40.9973C120.136 40.8159 119.784 40.5546 119.485 40.2133C119.197 39.8613 119.053 39.4026 119.053 38.8373C119.053 38.3893 119.186 37.9786 119.453 37.6053C119.72 37.2319 120.098 36.9386 120.589 36.7253C121.08 36.5013 121.64 36.3893 122.269 36.3893C123.24 36.3893 124.024 36.6346 124.621 37.1253C125.218 37.6159 125.538 38.2879 125.581 39.1413H124.125C124.093 38.6826 123.906 38.3146 123.565 38.0373C123.234 37.7599 122.786 37.6213 122.221 37.6213C121.698 37.6213 121.282 37.7333 120.973 37.9573C120.664 38.1813 120.509 38.4746 120.509 38.8373C120.509 39.1253 120.6 39.3653 120.781 39.5573C120.973 39.7386 121.208 39.8879 121.485 40.0053C121.773 40.1119 122.168 40.2346 122.669 40.3733C123.298 40.5439 123.81 40.7146 124.205 40.8853C124.6 41.0453 124.936 41.2906 125.213 41.6213C125.501 41.9519 125.65 42.3839 125.661 42.9173C125.661 43.3973 125.528 43.8293 125.261 44.2133C124.994 44.5973 124.616 44.9013 124.125 45.1253C123.645 45.3386 123.09 45.4453 122.461 45.4453ZM131.438 40.8853C131.438 39.9893 131.619 39.2053 131.982 38.5333C132.345 37.8506 132.841 37.3226 133.47 36.9493C134.11 36.5759 134.819 36.3893 135.598 36.3893C136.366 36.3893 137.033 36.5546 137.598 36.8853C138.163 37.2159 138.585 37.6319 138.862 38.1333V36.5333H140.334V45.3013H138.862V43.6693C138.574 44.1813 138.142 44.6079 137.566 44.9493C137.001 45.2799 136.339 45.4453 135.582 45.4453C134.803 45.4453 134.099 45.2533 133.47 44.8693C132.841 44.4853 132.345 43.9466 131.982 43.2533C131.619 42.5599 131.438 41.7706 131.438 40.8853ZM138.862 40.9013C138.862 40.2399 138.729 39.6639 138.462 39.1733C138.195 38.6826 137.833 38.3093 137.374 38.0533C136.926 37.7866 136.43 37.6533 135.886 37.6533C135.342 37.6533 134.846 37.7813 134.398 38.0373C133.95 38.2933 133.593 38.6666 133.326 39.1573C133.059 39.6479 132.926 40.2239 132.926 40.8853C132.926 41.5573 133.059 42.1439 133.326 42.6453C133.593 43.1359 133.95 43.5146 134.398 43.7813C134.846 44.0373 135.342 44.1653 135.886 44.1653C136.43 44.1653 136.926 44.0373 137.374 43.7813C137.833 43.5146 138.195 43.1359 138.462 42.6453C138.729 42.1439 138.862 41.5626 138.862 40.9013ZM144.251 37.9573C144.507 37.4559 144.869 37.0666 145.339 36.7893C145.819 36.5119 146.4 36.3733 147.083 36.3733V37.8773H146.699C145.067 37.8773 144.251 38.7626 144.251 40.5333V45.3013H142.795V36.5333H144.251V37.9573ZM156.763 40.5813C156.763 40.8586 156.747 41.1519 156.715 41.4613H149.707C149.761 42.3253 150.054 43.0026 150.587 43.4933C151.131 43.9733 151.787 44.2133 152.555 44.2133C153.185 44.2133 153.707 44.0693 154.123 43.7813C154.55 43.4826 154.849 43.0879 155.019 42.5973H156.587C156.353 43.4399 155.883 44.1279 155.179 44.6613C154.475 45.1839 153.601 45.4453 152.555 45.4453C151.723 45.4453 150.977 45.2586 150.315 44.8853C149.665 44.5119 149.153 43.9839 148.779 43.3013C148.406 42.6079 148.219 41.8079 148.219 40.9013C148.219 39.9946 148.401 39.1999 148.763 38.5173C149.126 37.8346 149.633 37.3119 150.283 36.9493C150.945 36.5759 151.702 36.3893 152.555 36.3893C153.387 36.3893 154.123 36.5706 154.763 36.9333C155.403 37.2959 155.894 37.7973 156.235 38.4373C156.587 39.0666 156.763 39.7813 156.763 40.5813ZM155.259 40.2773C155.259 39.7226 155.137 39.2479 154.891 38.8533C154.646 38.4479 154.31 38.1439 153.883 37.9413C153.467 37.7279 153.003 37.6213 152.491 37.6213C151.755 37.6213 151.126 37.8559 150.603 38.3253C150.091 38.7946 149.798 39.4453 149.723 40.2773H155.259ZM159.149 45.3973C158.872 45.3973 158.637 45.3013 158.445 45.1093C158.253 44.9173 158.157 44.6826 158.157 44.4053C158.157 44.1279 158.253 43.8933 158.445 43.7013C158.637 43.5093 158.872 43.4133 159.149 43.4133C159.416 43.4133 159.64 43.5093 159.821 43.7013C160.013 43.8933 160.109 44.1279 160.109 44.4053C160.109 44.6826 160.013 44.9173 159.821 45.1093C159.64 45.3013 159.416 45.3973 159.149 45.3973Z" fill="#22343D"/>
<rect x="1.45833" y="9.7596" width="32.0833" height="32.0833" rx="12.3958" fill="#4D8DFF"/>
<rect x="1.45833" y="9.7596" width="32.0833" height="32.0833" rx="12.3958" stroke="white" stroke-width="2.91667"/>
<rect x="1.45833" y="9.7596" width="32.0833" height="32.0833" rx="12.3958" stroke="#4D8DFF" stroke-width="2.91667"/>
<path d="M25.7657 20.5406C25.4533 20.2215 24.9468 20.2215 24.6343 20.5406L15.0498 30.329L11.3657 26.5665C11.0533 26.2475 10.5468 26.2475 10.2343 26.5665C9.92189 26.8856 9.92189 27.4029 10.2343 27.7219L14.4841 32.0621C14.7964 32.3811 15.3033 32.3809 15.6155 32.0621L25.7657 21.696C26.0781 21.377 26.0781 20.8597 25.7657 20.5406Z" fill="white"/>
</svg>
