<svg width="430" height="53" viewBox="0 0 430 53" fill="none" xmlns="http://www.w3.org/2000/svg">
<g clip-path="url(#clip0_1_700)">
<path d="M75 19.3013H73.544L67.688 10.4213V19.3013H66.232V8.13327H67.688L73.544 16.9973V8.13327H75V19.3013ZM85.482 14.5813C85.482 14.8586 85.466 15.1519 85.434 15.4613H78.426C78.4793 16.3253 78.7727 17.0026 79.306 17.4933C79.85 17.9733 80.506 18.2133 81.274 18.2133C81.9033 18.2133 82.426 18.0693 82.842 17.7813C83.2687 17.4826 83.5673 17.0879 83.738 16.5973H85.306C85.0713 17.4399 84.602 18.1279 83.898 18.6613C83.194 19.1839 82.3193 19.4453 81.274 19.4453C80.442 19.4453 79.6953 19.2586 79.034 18.8853C78.3833 18.5119 77.8713 17.9839 77.498 17.3013C77.1247 16.6079 76.938 15.8079 76.938 14.9013C76.938 13.9946 77.1193 13.1999 77.482 12.5173C77.8447 11.8346 78.3513 11.3119 79.002 10.9493C79.6633 10.5759 80.4207 10.3893 81.274 10.3893C82.106 10.3893 82.842 10.5706 83.482 10.9333C84.122 11.2959 84.6127 11.7973 84.954 12.4373C85.306 13.0666 85.482 13.7813 85.482 14.5813ZM83.978 14.2773C83.978 13.7226 83.8553 13.2479 83.61 12.8533C83.3647 12.4479 83.0287 12.1439 82.602 11.9413C82.186 11.7279 81.722 11.6213 81.21 11.6213C80.474 11.6213 79.8447 11.8559 79.322 12.3253C78.81 12.7946 78.5167 13.4453 78.442 14.2773H83.978ZM90.6679 17.9573L93.3879 10.5333H94.9399L91.4999 19.3013H89.8039L86.3639 10.5333H87.9319L90.6679 17.9573ZM104.373 14.5813C104.373 14.8586 104.357 15.1519 104.325 15.4613H97.3166C97.37 16.3253 97.6633 17.0026 98.1966 17.4933C98.7406 17.9733 99.3966 18.2133 100.165 18.2133C100.794 18.2133 101.317 18.0693 101.733 17.7813C102.159 17.4826 102.458 17.0879 102.629 16.5973H104.197C103.962 17.4399 103.493 18.1279 102.789 18.6613C102.085 19.1839 101.21 19.4453 100.165 19.4453C99.3326 19.4453 98.586 19.2586 97.9246 18.8853C97.274 18.5119 96.762 17.9839 96.3886 17.3013C96.0153 16.6079 95.8286 15.8079 95.8286 14.9013C95.8286 13.9946 96.01 13.1999 96.3726 12.5173C96.7353 11.8346 97.242 11.3119 97.8926 10.9493C98.554 10.5759 99.3113 10.3893 100.165 10.3893C100.997 10.3893 101.733 10.5706 102.373 10.9333C103.013 11.2959 103.503 11.7973 103.845 12.4373C104.197 13.0666 104.373 13.7813 104.373 14.5813ZM102.869 14.2773C102.869 13.7226 102.746 13.2479 102.501 12.8533C102.255 12.4479 101.919 12.1439 101.493 11.9413C101.077 11.7279 100.613 11.6213 100.101 11.6213C99.3646 11.6213 98.7353 11.8559 98.2126 12.3253C97.7006 12.7946 97.4073 13.4453 97.3326 14.2773H102.869ZM107.751 11.9573C108.007 11.4559 108.369 11.0666 108.839 10.7893C109.319 10.5119 109.9 10.3733 110.583 10.3733V11.8773H110.199C108.567 11.8773 107.751 12.7626 107.751 14.5333V19.3013H106.295V10.5333H107.751V11.9573ZM128.209 10.5333L125.473 19.3013H123.969L121.857 12.3413L119.745 19.3013H118.241L115.489 10.5333H116.977L118.993 17.8933L121.169 10.5333H122.657L124.785 17.9093L126.769 10.5333H128.209ZM133.478 19.4453C132.657 19.4453 131.91 19.2586 131.238 18.8853C130.577 18.5119 130.054 17.9839 129.67 17.3013C129.297 16.6079 129.11 15.8079 129.11 14.9013C129.11 14.0053 129.302 13.2159 129.686 12.5333C130.081 11.8399 130.614 11.3119 131.286 10.9493C131.958 10.5759 132.71 10.3893 133.542 10.3893C134.374 10.3893 135.126 10.5759 135.798 10.9493C136.47 11.3119 136.998 11.8346 137.382 12.5173C137.777 13.1999 137.974 13.9946 137.974 14.9013C137.974 15.8079 137.771 16.6079 137.366 17.3013C136.971 17.9839 136.433 18.5119 135.75 18.8853C135.067 19.2586 134.31 19.4453 133.478 19.4453ZM133.478 18.1653C134.001 18.1653 134.491 18.0426 134.95 17.7973C135.409 17.5519 135.777 17.1839 136.054 16.6933C136.342 16.2026 136.486 15.6053 136.486 14.9013C136.486 14.1973 136.347 13.5999 136.07 13.1093C135.793 12.6186 135.43 12.2559 134.982 12.0213C134.534 11.7759 134.049 11.6533 133.526 11.6533C132.993 11.6533 132.502 11.7759 132.054 12.0213C131.617 12.2559 131.265 12.6186 130.998 13.1093C130.731 13.5999 130.598 14.1973 130.598 14.9013C130.598 15.6159 130.726 16.2186 130.982 16.7093C131.249 17.1999 131.601 17.5679 132.038 17.8133C132.475 18.0479 132.955 18.1653 133.478 18.1653ZM141.344 11.9573C141.6 11.4559 141.963 11.0666 142.432 10.7893C142.912 10.5119 143.494 10.3733 144.176 10.3733V11.8773H143.792C142.16 11.8773 141.344 12.7626 141.344 14.5333V19.3013H139.888V10.5333H141.344V11.9573ZM147.313 11.9573C147.569 11.4559 147.932 11.0666 148.401 10.7893C148.881 10.5119 149.462 10.3733 150.145 10.3733V11.8773H149.761C148.129 11.8773 147.313 12.7626 147.313 14.5333V19.3013H145.857V10.5333H147.313V11.9573ZM159.378 10.5333L154.098 23.4293H152.594L154.322 19.2053L150.786 10.5333H152.402L155.154 17.6373L157.874 10.5333H159.378ZM164.563 14.8853C164.563 13.9893 164.744 13.2053 165.107 12.5333C165.47 11.8506 165.966 11.3226 166.595 10.9493C167.235 10.5759 167.944 10.3893 168.723 10.3893C169.491 10.3893 170.158 10.5546 170.723 10.8853C171.288 11.2159 171.71 11.6319 171.987 12.1333V10.5333H173.459V19.3013H171.987V17.6693C171.699 18.1813 171.267 18.6079 170.691 18.9493C170.126 19.2799 169.464 19.4453 168.707 19.4453C167.928 19.4453 167.224 19.2533 166.595 18.8693C165.966 18.4853 165.47 17.9466 165.107 17.2533C164.744 16.5599 164.563 15.7706 164.563 14.8853ZM171.987 14.9013C171.987 14.2399 171.854 13.6639 171.587 13.1733C171.32 12.6826 170.958 12.3093 170.499 12.0533C170.051 11.7866 169.555 11.6533 169.011 11.6533C168.467 11.6533 167.971 11.7813 167.523 12.0373C167.075 12.2933 166.718 12.6666 166.451 13.1573C166.184 13.6479 166.051 14.2239 166.051 14.8853C166.051 15.5573 166.184 16.1439 166.451 16.6453C166.718 17.1359 167.075 17.5146 167.523 17.7813C167.971 18.0373 168.467 18.1653 169.011 18.1653C169.555 18.1653 170.051 18.0373 170.499 17.7813C170.958 17.5146 171.32 17.1359 171.587 16.6453C171.854 16.1439 171.987 15.5626 171.987 14.9013ZM177.376 12.1653C177.674 11.6426 178.112 11.2159 178.688 10.8853C179.264 10.5546 179.92 10.3893 180.656 10.3893C181.445 10.3893 182.154 10.5759 182.784 10.9493C183.413 11.3226 183.909 11.8506 184.272 12.5333C184.634 13.2053 184.816 13.9893 184.816 14.8853C184.816 15.7706 184.634 16.5599 184.272 17.2533C183.909 17.9466 183.407 18.4853 182.767 18.8693C182.138 19.2533 181.434 19.4453 180.656 19.4453C179.898 19.4453 179.232 19.2799 178.656 18.9493C178.09 18.6186 177.664 18.1973 177.376 17.6853V19.3013H175.92V7.46127H177.376V12.1653ZM183.328 14.8853C183.328 14.2239 183.194 13.6479 182.928 13.1573C182.661 12.6666 182.298 12.2933 181.84 12.0373C181.392 11.7813 180.896 11.6533 180.352 11.6533C179.818 11.6533 179.322 11.7866 178.864 12.0533C178.416 12.3093 178.053 12.6879 177.776 13.1893C177.509 13.6799 177.376 14.2506 177.376 14.9013C177.376 15.5626 177.509 16.1439 177.776 16.6453C178.053 17.1359 178.416 17.5146 178.864 17.7813C179.322 18.0373 179.818 18.1653 180.352 18.1653C180.896 18.1653 181.392 18.0373 181.84 17.7813C182.298 17.5146 182.661 17.1359 182.928 16.6453C183.194 16.1439 183.328 15.5573 183.328 14.8853ZM190.556 19.4453C189.735 19.4453 188.988 19.2586 188.316 18.8853C187.655 18.5119 187.132 17.9839 186.748 17.3013C186.375 16.6079 186.188 15.8079 186.188 14.9013C186.188 14.0053 186.38 13.2159 186.764 12.5333C187.159 11.8399 187.692 11.3119 188.364 10.9493C189.036 10.5759 189.788 10.3893 190.62 10.3893C191.452 10.3893 192.204 10.5759 192.876 10.9493C193.548 11.3119 194.076 11.8346 194.46 12.5173C194.855 13.1999 195.052 13.9946 195.052 14.9013C195.052 15.8079 194.849 16.6079 194.444 17.3013C194.049 17.9839 193.511 18.5119 192.828 18.8853C192.145 19.2586 191.388 19.4453 190.556 19.4453ZM190.556 18.1653C191.079 18.1653 191.569 18.0426 192.028 17.7973C192.487 17.5519 192.855 17.1839 193.132 16.6933C193.42 16.2026 193.564 15.6053 193.564 14.9013C193.564 14.1973 193.425 13.5999 193.148 13.1093C192.871 12.6186 192.508 12.2559 192.06 12.0213C191.612 11.7759 191.127 11.6533 190.604 11.6533C190.071 11.6533 189.58 11.7759 189.132 12.0213C188.695 12.2559 188.343 12.6186 188.076 13.1093C187.809 13.5999 187.676 14.1973 187.676 14.9013C187.676 15.6159 187.804 16.2186 188.06 16.7093C188.327 17.1999 188.679 17.5679 189.116 17.8133C189.553 18.0479 190.033 18.1653 190.556 18.1653ZM204.742 10.5333V19.3013H203.286V18.0053C203.009 18.4533 202.62 18.8053 202.118 19.0613C201.628 19.3066 201.084 19.4293 200.486 19.4293C199.804 19.4293 199.19 19.2906 198.646 19.0133C198.102 18.7253 197.67 18.2986 197.35 17.7333C197.041 17.1679 196.886 16.4799 196.886 15.6693V10.5333H198.326V15.4773C198.326 16.3413 198.545 17.0079 198.982 17.4773C199.42 17.9359 200.017 18.1653 200.774 18.1653C201.553 18.1653 202.166 17.9253 202.614 17.4453C203.062 16.9653 203.286 16.2666 203.286 15.3493V10.5333H204.742ZM208.977 11.7333V16.9013C208.977 17.3279 209.067 17.6319 209.249 17.8133C209.43 17.9839 209.745 18.0693 210.193 18.0693H211.265V19.3013H209.953C209.142 19.3013 208.534 19.1146 208.129 18.7413C207.723 18.3679 207.521 17.7546 207.521 16.9013V11.7333H206.385V10.5333H207.521V8.32527H208.977V10.5333H211.265V11.7333H208.977ZM221.119 19.4453C220.297 19.4453 219.551 19.2586 218.879 18.8853C218.217 18.5119 217.695 17.9839 217.311 17.3013C216.937 16.6079 216.751 15.8079 216.751 14.9013C216.751 14.0053 216.943 13.2159 217.327 12.5333C217.721 11.8399 218.255 11.3119 218.927 10.9493C219.599 10.5759 220.351 10.3893 221.183 10.3893C222.015 10.3893 222.767 10.5759 223.439 10.9493C224.111 11.3119 224.639 11.8346 225.023 12.5173C225.417 13.1999 225.615 13.9946 225.615 14.9013C225.615 15.8079 225.412 16.6079 225.007 17.3013C224.612 17.9839 224.073 18.5119 223.391 18.8853C222.708 19.2586 221.951 19.4453 221.119 19.4453ZM221.119 18.1653C221.641 18.1653 222.132 18.0426 222.591 17.7973C223.049 17.5519 223.417 17.1839 223.695 16.6933C223.983 16.2026 224.127 15.6053 224.127 14.9013C224.127 14.1973 223.988 13.5999 223.711 13.1093C223.433 12.6186 223.071 12.2559 222.623 12.0213C222.175 11.7759 221.689 11.6533 221.167 11.6533C220.633 11.6533 220.143 11.7759 219.695 12.0213C219.257 12.2559 218.905 12.6186 218.639 13.1093C218.372 13.5999 218.239 14.1973 218.239 14.9013C218.239 15.6159 218.367 16.2186 218.623 16.7093C218.889 17.1999 219.241 17.5679 219.679 17.8133C220.116 18.0479 220.596 18.1653 221.119 18.1653ZM230.793 17.9573L233.513 10.5333H235.065L231.625 19.3013H229.929L226.489 10.5333H228.057L230.793 17.9573ZM244.498 14.5813C244.498 14.8586 244.482 15.1519 244.45 15.4613H237.442C237.495 16.3253 237.788 17.0026 238.322 17.4933C238.866 17.9733 239.522 18.2133 240.29 18.2133C240.919 18.2133 241.442 18.0693 241.858 17.7813C242.284 17.4826 242.583 17.0879 242.754 16.5973H244.322C244.087 17.4399 243.618 18.1279 242.914 18.6613C242.21 19.1839 241.335 19.4453 240.29 19.4453C239.458 19.4453 238.711 19.2586 238.05 18.8853C237.399 18.5119 236.887 17.9839 236.514 17.3013C236.14 16.6079 235.954 15.8079 235.954 14.9013C235.954 13.9946 236.135 13.1999 236.498 12.5173C236.86 11.8346 237.367 11.3119 238.018 10.9493C238.679 10.5759 239.436 10.3893 240.29 10.3893C241.122 10.3893 241.858 10.5706 242.498 10.9333C243.138 11.2959 243.628 11.7973 243.97 12.4373C244.322 13.0666 244.498 13.7813 244.498 14.5813ZM242.994 14.2773C242.994 13.7226 242.871 13.2479 242.626 12.8533C242.38 12.4479 242.044 12.1439 241.618 11.9413C241.202 11.7279 240.738 11.6213 240.226 11.6213C239.49 11.6213 238.86 11.8559 238.338 12.3253C237.826 12.7946 237.532 13.4453 237.458 14.2773H242.994ZM247.876 11.9573C248.132 11.4559 248.494 11.0666 248.964 10.7893C249.444 10.5119 250.025 10.3733 250.708 10.3733V11.8773H250.324C248.692 11.8773 247.876 12.7626 247.876 14.5333V19.3013H246.42V10.5333H247.876V11.9573ZM253.844 12.1493C254.132 11.6479 254.559 11.2319 255.124 10.9013C255.7 10.5599 256.367 10.3893 257.124 10.3893C257.903 10.3893 258.607 10.5759 259.236 10.9493C259.876 11.3226 260.378 11.8506 260.74 12.5333C261.103 13.2053 261.284 13.9893 261.284 14.8853C261.284 15.7706 261.103 16.5599 260.74 17.2533C260.378 17.9466 259.876 18.4853 259.236 18.8693C258.607 19.2533 257.903 19.4453 257.124 19.4453C256.378 19.4453 255.716 19.2799 255.14 18.9493C254.575 18.6079 254.143 18.1866 253.844 17.6853V23.4613H252.388V10.5333H253.844V12.1493ZM259.796 14.8853C259.796 14.2239 259.663 13.6479 259.396 13.1573C259.13 12.6666 258.767 12.2933 258.308 12.0373C257.86 11.7813 257.364 11.6533 256.82 11.6533C256.287 11.6533 255.791 11.7866 255.332 12.0533C254.884 12.3093 254.522 12.6879 254.244 13.1893C253.978 13.6799 253.844 14.2506 253.844 14.9013C253.844 15.5626 253.978 16.1439 254.244 16.6453C254.522 17.1359 254.884 17.5146 255.332 17.7813C255.791 18.0373 256.287 18.1653 256.82 18.1653C257.364 18.1653 257.86 18.0373 258.308 17.7813C258.767 17.5146 259.13 17.1359 259.396 16.6453C259.663 16.1439 259.796 15.5573 259.796 14.8853ZM262.657 14.8853C262.657 13.9893 262.838 13.2053 263.201 12.5333C263.563 11.8506 264.059 11.3226 264.689 10.9493C265.329 10.5759 266.038 10.3893 266.817 10.3893C267.585 10.3893 268.251 10.5546 268.817 10.8853C269.382 11.2159 269.803 11.6319 270.081 12.1333V10.5333H271.553V19.3013H270.081V17.6693C269.793 18.1813 269.361 18.6079 268.785 18.9493C268.219 19.2799 267.558 19.4453 266.801 19.4453C266.022 19.4453 265.318 19.2533 264.689 18.8693C264.059 18.4853 263.563 17.9466 263.201 17.2533C262.838 16.5599 262.657 15.7706 262.657 14.8853ZM270.081 14.9013C270.081 14.2399 269.947 13.6639 269.681 13.1733C269.414 12.6826 269.051 12.3093 268.593 12.0533C268.145 11.7866 267.649 11.6533 267.105 11.6533C266.561 11.6533 266.065 11.7813 265.617 12.0373C265.169 12.2933 264.811 12.6666 264.545 13.1573C264.278 13.6479 264.145 14.2239 264.145 14.8853C264.145 15.5573 264.278 16.1439 264.545 16.6453C264.811 17.1359 265.169 17.5146 265.617 17.7813C266.065 18.0373 266.561 18.1653 267.105 18.1653C267.649 18.1653 268.145 18.0373 268.593 17.7813C269.051 17.5146 269.414 17.1359 269.681 16.6453C269.947 16.1439 270.081 15.5626 270.081 14.9013ZM281.565 10.5333L276.285 23.4293H274.781L276.509 19.2053L272.973 10.5333H274.589L277.341 17.6373L280.061 10.5333H281.565ZM283.781 9.10927C283.504 9.10927 283.269 9.01327 283.077 8.82127C282.885 8.62927 282.789 8.3946 282.789 8.11727C282.789 7.83994 282.885 7.60527 283.077 7.41327C283.269 7.22127 283.504 7.12527 283.781 7.12527C284.048 7.12527 284.272 7.22127 284.453 7.41327C284.645 7.60527 284.741 7.83994 284.741 8.11727C284.741 8.3946 284.645 8.62927 284.453 8.82127C284.272 9.01327 284.048 9.10927 283.781 9.10927ZM284.485 10.5333V19.3013H283.029V10.5333H284.485ZM291.238 10.3733C292.305 10.3733 293.169 10.6986 293.83 11.3493C294.492 11.9893 294.822 12.9173 294.822 14.1333V19.3013H293.382V14.3413C293.382 13.4666 293.164 12.7999 292.726 12.3413C292.289 11.8719 291.692 11.6373 290.934 11.6373C290.166 11.6373 289.553 11.8773 289.094 12.3573C288.646 12.8373 288.422 13.5359 288.422 14.4533V19.3013H286.966V10.5333H288.422V11.7813C288.71 11.3333 289.1 10.9866 289.59 10.7413C290.092 10.4959 290.641 10.3733 291.238 10.3733ZM300.817 10.3893C301.574 10.3893 302.235 10.5546 302.801 10.8853C303.377 11.2159 303.803 11.6319 304.081 12.1333V10.5333H305.553V19.4933C305.553 20.2933 305.382 21.0026 305.041 21.6213C304.699 22.2506 304.209 22.7413 303.569 23.0933C302.939 23.4453 302.203 23.6213 301.361 23.6213C300.209 23.6213 299.249 23.3493 298.481 22.8053C297.713 22.2613 297.259 21.5199 297.121 20.5813H298.561C298.721 21.1146 299.051 21.5413 299.553 21.8613C300.054 22.1919 300.657 22.3573 301.361 22.3573C302.161 22.3573 302.811 22.1066 303.313 21.6053C303.825 21.1039 304.081 20.3999 304.081 19.4933V17.6533C303.793 18.1653 303.366 18.5919 302.801 18.9333C302.235 19.2746 301.574 19.4453 300.817 19.4453C300.038 19.4453 299.329 19.2533 298.689 18.8693C298.059 18.4853 297.563 17.9466 297.201 17.2533C296.838 16.5599 296.657 15.7706 296.657 14.8853C296.657 13.9893 296.838 13.2053 297.201 12.5333C297.563 11.8506 298.059 11.3226 298.689 10.9493C299.329 10.5759 300.038 10.3893 300.817 10.3893ZM304.081 14.9013C304.081 14.2399 303.947 13.6639 303.681 13.1733C303.414 12.6826 303.051 12.3093 302.593 12.0533C302.145 11.7866 301.649 11.6533 301.105 11.6533C300.561 11.6533 300.065 11.7813 299.617 12.0373C299.169 12.2933 298.811 12.6666 298.545 13.1573C298.278 13.6479 298.145 14.2239 298.145 14.8853C298.145 15.5573 298.278 16.1439 298.545 16.6453C298.811 17.1359 299.169 17.5146 299.617 17.7813C300.065 18.0373 300.561 18.1653 301.105 18.1653C301.649 18.1653 302.145 18.0373 302.593 17.7813C303.051 17.5146 303.414 17.1359 303.681 16.6453C303.947 16.1439 304.081 15.5626 304.081 14.9013ZM315.847 11.7333H314.007V19.3013H312.551V11.7333H311.415V10.5333H312.551V9.90927C312.551 8.92794 312.802 8.21327 313.303 7.76527C313.815 7.3066 314.631 7.07727 315.751 7.07727V8.29327C315.111 8.29327 314.658 8.42127 314.391 8.67727C314.135 8.9226 314.007 9.33327 314.007 9.90927V10.5333H315.847V11.7333ZM321.369 19.4453C320.547 19.4453 319.801 19.2586 319.129 18.8853C318.467 18.5119 317.945 17.9839 317.561 17.3013C317.187 16.6079 317.001 15.8079 317.001 14.9013C317.001 14.0053 317.193 13.2159 317.577 12.5333C317.971 11.8399 318.505 11.3119 319.177 10.9493C319.849 10.5759 320.601 10.3893 321.433 10.3893C322.265 10.3893 323.017 10.5759 323.689 10.9493C324.361 11.3119 324.889 11.8346 325.273 12.5173C325.667 13.1999 325.865 13.9946 325.865 14.9013C325.865 15.8079 325.662 16.6079 325.257 17.3013C324.862 17.9839 324.323 18.5119 323.641 18.8853C322.958 19.2586 322.201 19.4453 321.369 19.4453ZM321.369 18.1653C321.891 18.1653 322.382 18.0426 322.841 17.7973C323.299 17.5519 323.667 17.1839 323.945 16.6933C324.233 16.2026 324.377 15.6053 324.377 14.9013C324.377 14.1973 324.238 13.5999 323.961 13.1093C323.683 12.6186 323.321 12.2559 322.873 12.0213C322.425 11.7759 321.939 11.6533 321.417 11.6533C320.883 11.6533 320.393 11.7759 319.945 12.0213C319.507 12.2559 319.155 12.6186 318.889 13.1093C318.622 13.5999 318.489 14.1973 318.489 14.9013C318.489 15.6159 318.617 16.2186 318.873 16.7093C319.139 17.1999 319.491 17.5679 319.929 17.8133C320.366 18.0479 320.846 18.1653 321.369 18.1653ZM329.235 11.9573C329.491 11.4559 329.854 11.0666 330.323 10.7893C330.803 10.5119 331.384 10.3733 332.067 10.3733V11.8773H331.683C330.051 11.8773 329.235 12.7626 329.235 14.5333V19.3013H327.779V10.5333H329.235V11.9573ZM345.565 10.5333L340.285 23.4293H338.781L340.509 19.2053L336.973 10.5333H338.589L341.341 17.6373L344.061 10.5333H345.565ZM350.853 19.4453C350.032 19.4453 349.285 19.2586 348.613 18.8853C347.952 18.5119 347.429 17.9839 347.045 17.3013C346.672 16.6079 346.485 15.8079 346.485 14.9013C346.485 14.0053 346.677 13.2159 347.061 12.5333C347.456 11.8399 347.989 11.3119 348.661 10.9493C349.333 10.5759 350.085 10.3893 350.917 10.3893C351.749 10.3893 352.501 10.5759 353.173 10.9493C353.845 11.3119 354.373 11.8346 354.757 12.5173C355.152 13.1999 355.349 13.9946 355.349 14.9013C355.349 15.8079 355.146 16.6079 354.741 17.3013C354.346 17.9839 353.808 18.5119 353.125 18.8853C352.442 19.2586 351.685 19.4453 350.853 19.4453ZM350.853 18.1653C351.376 18.1653 351.866 18.0426 352.325 17.7973C352.784 17.5519 353.152 17.1839 353.429 16.6933C353.717 16.2026 353.861 15.6053 353.861 14.9013C353.861 14.1973 353.722 13.5999 353.445 13.1093C353.168 12.6186 352.805 12.2559 352.357 12.0213C351.909 11.7759 351.424 11.6533 350.901 11.6533C350.368 11.6533 349.877 11.7759 349.429 12.0213C348.992 12.2559 348.64 12.6186 348.373 13.1093C348.106 13.5999 347.973 14.1973 347.973 14.9013C347.973 15.6159 348.101 16.2186 348.357 16.7093C348.624 17.1999 348.976 17.5679 349.413 17.8133C349.85 18.0479 350.33 18.1653 350.853 18.1653ZM365.039 10.5333V19.3013H363.583V18.0053C363.306 18.4533 362.917 18.8053 362.415 19.0613C361.925 19.3066 361.381 19.4293 360.783 19.4293C360.101 19.4293 359.487 19.2906 358.943 19.0133C358.399 18.7253 357.967 18.2986 357.647 17.7333C357.338 17.1679 357.183 16.4799 357.183 15.6693V10.5333H358.623V15.4773C358.623 16.3413 358.842 17.0079 359.279 17.4773C359.717 17.9359 360.314 18.1653 361.071 18.1653C361.85 18.1653 362.463 17.9253 362.911 17.4453C363.359 16.9653 363.583 16.2666 363.583 15.3493V10.5333H365.039ZM368.954 11.9573C369.21 11.4559 369.572 11.0666 370.042 10.7893C370.522 10.5119 371.103 10.3733 371.786 10.3733V11.8773H371.402C369.77 11.8773 368.954 12.7626 368.954 14.5333V19.3013H367.498V10.5333H368.954V11.9573ZM74.232 40.5813C74.232 40.8586 74.216 41.1519 74.184 41.4613H67.176C67.2293 42.3253 67.5227 43.0026 68.056 43.4933C68.6 43.9733 69.256 44.2133 70.024 44.2133C70.6533 44.2133 71.176 44.0693 71.592 43.7813C72.0187 43.4826 72.3173 43.0879 72.488 42.5973H74.056C73.8213 43.4399 73.352 44.1279 72.648 44.6613C71.944 45.1839 71.0693 45.4453 70.024 45.4453C69.192 45.4453 68.4453 45.2586 67.784 44.8853C67.1333 44.5119 66.6213 43.9839 66.248 43.3013C65.8747 42.6079 65.688 41.8079 65.688 40.9013C65.688 39.9946 65.8693 39.1999 66.232 38.5173C66.5947 37.8346 67.1013 37.3119 67.752 36.9493C68.4133 36.5759 69.1707 36.3893 70.024 36.3893C70.856 36.3893 71.592 36.5706 72.232 36.9333C72.872 37.2959 73.3627 37.7973 73.704 38.4373C74.056 39.0666 74.232 39.7813 74.232 40.5813ZM72.728 40.2773C72.728 39.7226 72.6053 39.2479 72.36 38.8533C72.1147 38.4479 71.7787 38.1439 71.352 37.9413C70.936 37.7279 70.472 37.6213 69.96 37.6213C69.224 37.6213 68.5947 37.8559 68.072 38.3253C67.56 38.7946 67.2667 39.4453 67.192 40.2773H72.728ZM80.4259 36.3733C81.4925 36.3733 82.3565 36.6986 83.0179 37.3493C83.6792 37.9893 84.0099 38.9173 84.0099 40.1333V45.3013H82.5699V40.3413C82.5699 39.4666 82.3512 38.7999 81.9139 38.3413C81.4765 37.8719 80.8792 37.6373 80.1219 37.6373C79.3539 37.6373 78.7405 37.8773 78.2819 38.3573C77.8339 38.8373 77.6099 39.5359 77.6099 40.4533V45.3013H76.1539V36.5333H77.6099V37.7813C77.8979 37.3333 78.2872 36.9866 78.7779 36.7413C79.2792 36.4959 79.8285 36.3733 80.4259 36.3733ZM94.3883 40.5813C94.3883 40.8586 94.3723 41.1519 94.3403 41.4613H87.3323C87.3856 42.3253 87.6789 43.0026 88.2123 43.4933C88.7563 43.9733 89.4123 44.2133 90.1803 44.2133C90.8096 44.2133 91.3323 44.0693 91.7483 43.7813C92.1749 43.4826 92.4736 43.0879 92.6443 42.5973H94.2123C93.9776 43.4399 93.5083 44.1279 92.8043 44.6613C92.1003 45.1839 91.2256 45.4453 90.1803 45.4453C89.3483 45.4453 88.6016 45.2586 87.9403 44.8853C87.2896 44.5119 86.7776 43.9839 86.4043 43.3013C86.0309 42.6079 85.8443 41.8079 85.8443 40.9013C85.8443 39.9946 86.0256 39.1999 86.3883 38.5173C86.7509 37.8346 87.2576 37.3119 87.9083 36.9493C88.5696 36.5759 89.3269 36.3893 90.1803 36.3893C91.0123 36.3893 91.7483 36.5706 92.3883 36.9333C93.0283 37.2959 93.5189 37.7973 93.8603 38.4373C94.2123 39.0666 94.3883 39.7813 94.3883 40.5813ZM92.8843 40.2773C92.8843 39.7226 92.7616 39.2479 92.5163 38.8533C92.2709 38.4479 91.9349 38.1439 91.5083 37.9413C91.0923 37.7279 90.6283 37.6213 90.1163 37.6213C89.3803 37.6213 88.7509 37.8559 88.2283 38.3253C87.7163 38.7946 87.4229 39.4453 87.3483 40.2773H92.8843ZM97.7661 37.9573C98.0221 37.4559 98.3848 37.0666 98.8541 36.7893C99.3341 36.5119 99.9155 36.3733 100.598 36.3733V37.8773H100.214C98.5821 37.8773 97.7661 38.7626 97.7661 40.5333V45.3013H96.3101V36.5333H97.7661V37.9573ZM105.895 36.3893C106.652 36.3893 107.314 36.5546 107.879 36.8853C108.455 37.2159 108.882 37.6319 109.159 38.1333V36.5333H110.631V45.4933C110.631 46.2933 110.46 47.0026 110.119 47.6213C109.778 48.2506 109.287 48.7413 108.647 49.0933C108.018 49.4453 107.282 49.6213 106.439 49.6213C105.287 49.6213 104.327 49.3493 103.559 48.8053C102.791 48.2613 102.338 47.5199 102.199 46.5813H103.639C103.799 47.1146 104.13 47.5413 104.631 47.8613C105.132 48.1919 105.735 48.3573 106.439 48.3573C107.239 48.3573 107.89 48.1066 108.391 47.6053C108.903 47.1039 109.159 46.3999 109.159 45.4933V43.6533C108.871 44.1653 108.444 44.5919 107.879 44.9333C107.314 45.2746 106.652 45.4453 105.895 45.4453C105.116 45.4453 104.407 45.2533 103.767 44.8693C103.138 44.4853 102.642 43.9466 102.279 43.2533C101.916 42.5599 101.735 41.7706 101.735 40.8853C101.735 39.9893 101.916 39.2053 102.279 38.5333C102.642 37.8506 103.138 37.3226 103.767 36.9493C104.407 36.5759 105.116 36.3893 105.895 36.3893ZM109.159 40.9013C109.159 40.2399 109.026 39.6639 108.759 39.1733C108.492 38.6826 108.13 38.3093 107.671 38.0533C107.223 37.7866 106.727 37.6533 106.183 37.6533C105.639 37.6533 105.143 37.7813 104.695 38.0373C104.247 38.2933 103.89 38.6666 103.623 39.1573C103.356 39.6479 103.223 40.2239 103.223 40.8853C103.223 41.5573 103.356 42.1439 103.623 42.6453C103.89 43.1359 104.247 43.5146 104.695 43.7813C105.143 44.0373 105.639 44.1653 106.183 44.1653C106.727 44.1653 107.223 44.0373 107.671 43.7813C108.13 43.5146 108.492 43.1359 108.759 42.6453C109.026 42.1439 109.159 41.5626 109.159 40.9013ZM120.643 36.5333L115.363 49.4293H113.859L115.587 45.2053L112.051 36.5333H113.667L116.419 43.6373L119.139 36.5333H120.643ZM125.829 40.8853C125.829 39.9893 126.01 39.2053 126.373 38.5333C126.735 37.8506 127.231 37.3226 127.861 36.9493C128.501 36.5759 129.21 36.3893 129.989 36.3893C130.757 36.3893 131.423 36.5546 131.989 36.8853C132.554 37.2159 132.975 37.6319 133.253 38.1333V36.5333H134.725V45.3013H133.253V43.6693C132.965 44.1813 132.533 44.6079 131.957 44.9493C131.391 45.2799 130.73 45.4453 129.973 45.4453C129.194 45.4453 128.49 45.2533 127.861 44.8693C127.231 44.4853 126.735 43.9466 126.373 43.2533C126.01 42.5599 125.829 41.7706 125.829 40.8853ZM133.253 40.9013C133.253 40.2399 133.119 39.6639 132.853 39.1733C132.586 38.6826 132.223 38.3093 131.765 38.0533C131.317 37.7866 130.821 37.6533 130.277 37.6533C129.733 37.6533 129.237 37.7813 128.789 38.0373C128.341 38.2933 127.983 38.6666 127.717 39.1573C127.45 39.6479 127.317 40.2239 127.317 40.8853C127.317 41.5573 127.45 42.1439 127.717 42.6453C127.983 43.1359 128.341 43.5146 128.789 43.7813C129.237 44.0373 129.733 44.1653 130.277 44.1653C130.821 44.1653 131.317 44.0373 131.765 43.7813C132.223 43.5146 132.586 43.1359 132.853 42.6453C133.119 42.1439 133.253 41.5626 133.253 40.9013ZM140.801 36.3893C141.558 36.3893 142.22 36.5546 142.785 36.8853C143.361 37.2159 143.788 37.6319 144.065 38.1333V36.5333H145.537V45.4933C145.537 46.2933 145.366 47.0026 145.025 47.6213C144.684 48.2506 144.193 48.7413 143.553 49.0933C142.924 49.4453 142.188 49.6213 141.345 49.6213C140.193 49.6213 139.233 49.3493 138.465 48.8053C137.697 48.2613 137.244 47.5199 137.105 46.5813H138.545C138.705 47.1146 139.036 47.5413 139.537 47.8613C140.038 48.1919 140.641 48.3573 141.345 48.3573C142.145 48.3573 142.796 48.1066 143.297 47.6053C143.809 47.1039 144.065 46.3999 144.065 45.4933V43.6533C143.777 44.1653 143.35 44.5919 142.785 44.9333C142.22 45.2746 141.558 45.4453 140.801 45.4453C140.022 45.4453 139.313 45.2533 138.673 44.8693C138.044 44.4853 137.548 43.9466 137.185 43.2533C136.822 42.5599 136.641 41.7706 136.641 40.8853C136.641 39.9893 136.822 39.2053 137.185 38.5333C137.548 37.8506 138.044 37.3226 138.673 36.9493C139.313 36.5759 140.022 36.3893 140.801 36.3893ZM144.065 40.9013C144.065 40.2399 143.932 39.6639 143.665 39.1733C143.398 38.6826 143.036 38.3093 142.577 38.0533C142.129 37.7866 141.633 37.6533 141.089 37.6533C140.545 37.6533 140.049 37.7813 139.601 38.0373C139.153 38.2933 138.796 38.6666 138.529 39.1573C138.262 39.6479 138.129 40.2239 138.129 40.8853C138.129 41.5573 138.262 42.1439 138.529 42.6453C138.796 43.1359 139.153 43.5146 139.601 43.7813C140.049 44.0373 140.545 44.1653 141.089 44.1653C141.633 44.1653 142.129 44.0373 142.577 43.7813C143.036 43.5146 143.398 43.1359 143.665 42.6453C143.932 42.1439 144.065 41.5626 144.065 40.9013ZM147.454 40.8853C147.454 39.9893 147.635 39.2053 147.998 38.5333C148.36 37.8506 148.856 37.3226 149.486 36.9493C150.126 36.5759 150.835 36.3893 151.614 36.3893C152.382 36.3893 153.048 36.5546 153.614 36.8853C154.179 37.2159 154.6 37.6319 154.878 38.1333V36.5333H156.35V45.3013H154.878V43.6693C154.59 44.1813 154.158 44.6079 153.582 44.9493C153.016 45.2799 152.355 45.4453 151.598 45.4453C150.819 45.4453 150.115 45.2533 149.486 44.8693C148.856 44.4853 148.36 43.9466 147.998 43.2533C147.635 42.5599 147.454 41.7706 147.454 40.8853ZM154.878 40.9013C154.878 40.2399 154.744 39.6639 154.478 39.1733C154.211 38.6826 153.848 38.3093 153.39 38.0533C152.942 37.7866 152.446 37.6533 151.902 37.6533C151.358 37.6533 150.862 37.7813 150.414 38.0373C149.966 38.2933 149.608 38.6666 149.342 39.1573C149.075 39.6479 148.942 40.2239 148.942 40.8853C148.942 41.5573 149.075 42.1439 149.342 42.6453C149.608 43.1359 149.966 43.5146 150.414 43.7813C150.862 44.0373 151.358 44.1653 151.902 44.1653C152.446 44.1653 152.942 44.0373 153.39 43.7813C153.848 43.5146 154.211 43.1359 154.478 42.6453C154.744 42.1439 154.878 41.5626 154.878 40.9013ZM159.562 35.1093C159.285 35.1093 159.05 35.0133 158.858 34.8213C158.666 34.6293 158.57 34.3946 158.57 34.1173C158.57 33.8399 158.666 33.6053 158.858 33.4133C159.05 33.2213 159.285 33.1253 159.562 33.1253C159.829 33.1253 160.053 33.2213 160.234 33.4133C160.426 33.6053 160.522 33.8399 160.522 34.1173C160.522 34.3946 160.426 34.6293 160.234 34.8213C160.053 35.0133 159.829 35.1093 159.562 35.1093ZM160.266 36.5333V45.3013H158.81V36.5333H160.266ZM167.02 36.3733C168.086 36.3733 168.95 36.6986 169.612 37.3493C170.273 37.9893 170.604 38.9173 170.604 40.1333V45.3013H169.164V40.3413C169.164 39.4666 168.945 38.7999 168.508 38.3413C168.07 37.8719 167.473 37.6373 166.716 37.6373C165.948 37.6373 165.334 37.8773 164.876 38.3573C164.428 38.8373 164.204 39.5359 164.204 40.4533V45.3013H162.748V36.5333H164.204V37.7813C164.492 37.3333 164.881 36.9866 165.372 36.7413C165.873 36.4959 166.422 36.3733 167.02 36.3733ZM173.446 45.3973C173.169 45.3973 172.934 45.3013 172.742 45.1093C172.55 44.9173 172.454 44.6826 172.454 44.4053C172.454 44.1279 172.55 43.8933 172.742 43.7013C172.934 43.5093 173.169 43.4133 173.446 43.4133C173.713 43.4133 173.937 43.5093 174.118 43.7013C174.31 43.8933 174.406 44.1279 174.406 44.4053C174.406 44.6826 174.31 44.9173 174.118 45.1093C173.937 45.3013 173.713 45.3973 173.446 45.3973Z" fill="#22343D"/>
<rect x="1.45833" y="9.7596" width="32.0833" height="32.0833" rx="12.3958" fill="#FF9900"/>
<rect x="1.45833" y="9.7596" width="32.0833" height="32.0833" rx="12.3958" stroke="white" stroke-width="2.91667"/>
<rect x="1.45833" y="9.7596" width="32.0833" height="32.0833" rx="12.3958" stroke="#FF9900" stroke-width="2.91667"/>
<path d="M25.7657 20.5406C25.4533 20.2215 24.9468 20.2215 24.6343 20.5406L15.0498 30.329L11.3657 26.5665C11.0533 26.2475 10.5468 26.2475 10.2343 26.5665C9.92189 26.8856 9.92189 27.4029 10.2343 27.7219L14.4841 32.0621C14.7964 32.3811 15.3033 32.3809 15.6155 32.0621L25.7657 21.696C26.0781 21.377 26.0781 20.8597 25.7657 20.5406Z" fill="white"/>
</g>
<defs>
<clipPath id="clip0_1_700">
<rect width="430" height="52" fill="white" transform="translate(0 0.30127)"/>
</clipPath>
</defs>
</svg>
